<?xml version="1.0" encoding="utf-8"?>
<!-- Generator: Adobe Illustrator 19.0.0, SVG Export Plug-In . SVG Version: 6.00 Build 0)  -->
<svg version="1.1" id="Layer_1" xmlns="http://www.w3.org/2000/svg" xmlns:xlink="http://www.w3.org/1999/xlink" x="0px" y="0px"
	 viewBox="550 -350 1600 1200" style="enable-background:new 550 -350 1600 1200;" xml:space="preserve">
<style type="text/css">
	.st0{fill:#E8E8E8;}
	.st1{fill:#EC615B;}
	.st2{fill:#5222D0;}
	.st3{fill:#FFFFFF;}
	.st4{opacity:0.11;fill:#606060;enable-background:new    ;}
	.st5{fill:#161616;}
	.st6{opacity:0.1;fill:#606060;enable-background:new    ;}
	.st7{opacity:9.000000e-002;fill:#606060;enable-background:new    ;}
	.st8{opacity:0.12;fill:#606060;enable-background:new    ;}
	.st9{opacity:7.000000e-002;fill:#606060;enable-background:new    ;}
	.st10{opacity:6.000000e-002;fill:#606060;enable-background:new    ;}
	.st11{opacity:0.13;fill:#606060;enable-background:new    ;}
	.st12{opacity:8.000000e-002;fill:#606060;enable-background:new    ;}
	.st13{opacity:0.14;fill:#606060;enable-background:new    ;}
</style>
<g id="background">
	<g id="XMLID_2280_">
		<g id="XMLID_2321_">
			<path id="XMLID_2325_" class="st0" d="M1110.5,662.3c78.5,0,157,0,235.5,0c78.8,0,157.6,0,236.5,0c44.2,0,88.5,0,132.7,0
				c1.9,0,1.9-3,0-3c-78.5,0-157,0-235.5,0c-78.8,0-157.6,0-236.5,0c-44.2,0-88.5,0-132.7,0C1108.6,659.3,1108.6,662.3,1110.5,662.3
				L1110.5,662.3z"/>
		</g>
	</g>
	<g id="XMLID_2288_">
		<g id="XMLID_2329_">
			<path id="XMLID_2333_" class="st0" d="M1721.3,587.3c5.1,30.8,10.2,61.6,15.4,92.4c0.3,1.9,3.2,1.1,2.9-0.8
				c-5.1-30.8-10.2-61.6-15.4-92.4C1723.9,584.6,1721,585.4,1721.3,587.3L1721.3,587.3z"/>
		</g>
	</g>
	<g id="XMLID_2290_">
		<g id="XMLID_2337_">
			<path id="XMLID_2342_" class="st0" d="M1723.1,588c40.4-2.5,80.9-1.4,121,3.2c1.9,0.2,1.9-2.8,0-3c-40.2-4.6-80.7-5.7-121-3.2
				C1721.2,585.1,1721.1,588.1,1723.1,588L1723.1,588z"/>
		</g>
	</g>
	<g id="XMLID_2298_">
		<g id="XMLID_2345_">
			<path id="XMLID_2350_" class="st0" d="M1737.9,682c29.8,9.3,61.4,10.7,91.9,4.1c1.9-0.4,1.1-3.3-0.8-2.9
				c-30,6.5-61.1,5.1-90.4-4.1C1736.8,678.5,1736,681.4,1737.9,682L1737.9,682z"/>
		</g>
	</g>
	<g id="XMLID_2300_">
		<g id="XMLID_2353_">
			<path id="XMLID_2358_" class="st0" d="M1843.2,590.4c-2.5,31.3-6.9,62.4-13.4,93.1c-0.4,1.9,2.5,2.7,2.9,0.8
				c6.5-31,11.1-62.4,13.5-93.9C1846.3,588.4,1843.3,588.4,1843.2,590.4L1843.2,590.4z"/>
		</g>
	</g>
	<g id="XMLID_2307_">
		<g id="XMLID_2361_">
			<path id="XMLID_2366_" class="st0" d="M1728.4,628.8c14.1,21.5,30.6,41.3,49.1,59.2c1.4,1.3,3.5-0.8,2.1-2.1
				c-18.4-17.7-34.7-37.3-48.7-58.6C1729.9,625.7,1727.3,627.2,1728.4,628.8L1728.4,628.8z"/>
		</g>
	</g>
	<g id="XMLID_2308_">
		<g id="XMLID_2370_">
			<path id="XMLID_2374_" class="st0" d="M1740.9,587.7c24.2,35.1,52.3,67.4,84,96c1.4,1.3,3.6-0.8,2.1-2.1
				c-31.4-28.5-59.4-60.5-83.5-95.4C1742.4,584.6,1739.8,586.1,1740.9,587.7L1740.9,587.7z"/>
		</g>
	</g>
	<g id="XMLID_2316_">
		<g id="XMLID_2378_">
			<path id="XMLID_2382_" class="st0" d="M1786.7,589c14.3,18.3,29.6,35.7,45.9,52.2c1.4,1.4,3.5-0.7,2.1-2.1
				c-16.3-16.5-31.6-34-45.9-52.2C1787.6,585.4,1785.5,587.5,1786.7,589L1786.7,589z"/>
		</g>
	</g>
	<g id="XMLID_2318_">
		<g id="XMLID_2386_">
			<path id="XMLID_2391_" class="st0" d="M1755.9,584c-6.5-7.4-11.8-15.7-15.6-24.7c-1.8-4.3-3.3-8.7-4.4-13.2
				c-0.5-2.2-1-4.3-1.3-6.5c-0.2-1-0.9-3.1-0.5-4c-0.2-1.3,0.7-1.7,2.7-1.3c2.1-1.3,3.6-0.9,4.4,1.4c0.9,1.2,3.4,0.6,2.7-1.2
				c-2.9-7.4-5.2-14.9-7-22.6c-0.8-3.6-1.5-7.1-2.1-10.7c-0.4-2.3-0.6-4.5-0.9-6.8c-0.1-1.2-0.2-2.4-0.3-3.6
				c-0.4-1.9,0.5-3.3,2.7-4.3c0.8,0.9,2.7,0.3,2.6-1.1c-1.4-14-2.7-28-1.5-42c0.6-7.3,1.9-14.6,4.3-21.5c0.7-2,1.4-4.1,2.4-6.1
				c0.3-0.8,0.7-1.5,1.2-2.2c2.1,0,4.1,0,6.2,0c3,1.2,5.3,8.1,6.2,10.6c4.9,13.8,6.9,28.5,9.1,42.9c2.4,15.8,4.8,31.6,7.2,47.4
				c0.2,1.6,2.4,1.2,2.9,0c0.9-1,1.8-2.1,2.7-3.1c-0.7-0.2-1.4-0.4-2.1-0.5c5.9,10.8,7.1,23.1,7.9,35.2c0.8,12.9,1.1,25.9,1,38.8
				c0,1.9,3,1.9,3,0c0.1-14.2-0.2-28.3-1.3-42.5c-0.8-11.4-2.4-22.9-8-33.1c-0.4-0.7-1.4-1-2.1-0.5c-2.1,1.3-3.2,2.6-4.1,4.9
				c1,0,1.9,0,2.9,0c-2.9-19.1-5.6-38.3-8.7-57.4c-1.4-9-3.1-18.1-5.7-26.9c-1.9-6.5-4-14-9.4-18.4c-11.8-9.6-16.3,16.7-17.4,23.5
				c-2.8,16.9-1.2,34.1,0.4,51c0.9-0.4,1.7-0.7,2.6-1.1c-1.8-2-4.8-1.9-6.6,0.2c-2.8,3.3-1,9.8-0.5,13.5c1.7,12.8,4.9,25.3,9.6,37.4
				c0.9-0.4,1.8-0.8,2.7-1.2c-2.4-3.3-7.3-8-11.2-3.7c-3.3,3.7-0.7,11.5,0.2,15.6c3.5,14.9,10.8,28.7,21,40.1
				C1755.1,587.6,1757.2,585.4,1755.9,584L1755.9,584z"/>
		</g>
	</g>
	<g id="XMLID_2326_">
		<g id="XMLID_2394_">
			<path id="XMLID_2399_" class="st0" d="M1773.7,490.4c-0.3-5.4,0.2-36.1,10.5-33.4c1,0.3,1.8-0.5,1.9-1.4
				c2.2-17.6,9.4-33,16.5-48.9c1.6-3.5,3.2-7.1,4.8-10.6c2.1-4.6,5.2-12.9,11.3-6.5c5.6,5.7,6.3,15.1,6.4,22.6
				c0.2,16.6-0.6,33.3-1,50c-0.4,17.8-0.8,35.7-1.2,53.5c0,1.6,2.7,2.1,2.9,0.4c0.9,0.2,1.8,0.5,2.7,0.7c0.2,0.9,0.2,1.8,0.2,2.7
				c0,1.2-0.1,2.4-0.1,3.6c-0.1,3-0.2,5.9-0.4,8.9c-0.3,6.3-0.5,12.6-0.8,18.8c-0.5,12.1-0.9,24.3-3.4,36.2
				c-0.4,1.9,2.5,2.7,2.9,0.8c3.7-17.6,3.5-35.9,4.2-53.8c0.2-4.6,0.5-9.3,0.6-13.9c0-2.3,0-4.8-1.6-6.5c-2.2-2.5-6.6-1.7-7.2,1.7
				c1,0.1,2,0.3,2.9,0.4c0.7-32.9,1.7-65.8,2.2-98.7c0.2-9.9,0.1-27.2-10.8-32.1c-4-1.8-7.5,0.1-9.7,3.7c-3.9,6.4-6.5,14.2-9.6,21.1
				c-6.8,15-12.9,29.5-15,46c0.6-0.5,1.3-1,1.9-1.4c-6.1-1.6-9.4,4.5-11,9.4c-2.9,8.6-3.8,17.8-3.3,26.8
				C1770.8,492.4,1773.8,492.4,1773.7,490.4L1773.7,490.4z"/>
		</g>
	</g>
	<g id="XMLID_2335_">
		<g id="XMLID_2402_">
			<path id="XMLID_2407_" class="st0" d="M1838.6,659.3c18.9,0,37.7,0,56.6,0c1.9,0,1.9-3,0-3c-18.9,0-37.7,0-56.6,0
				C1836.7,656.3,1836.7,659.3,1838.6,659.3L1838.6,659.3z"/>
		</g>
	</g>
	<g id="XMLID_2343_">
		<g id="XMLID_2410_">
			<path id="XMLID_2415_" class="st0" d="M822.5,265.9c0,108.6,0,217.2,0,325.7c0,30.6,0,61.3,0,91.9c0,1.9,3,1.9,3,0
				c0-108.6,0-217.2,0-325.7c0-30.6,0-61.3,0-91.9C825.5,264,822.5,264,822.5,265.9L822.5,265.9z"/>
		</g>
	</g>
	<g id="XMLID_2351_">
		<g id="XMLID_2419_">
			<path id="XMLID_2423_" class="st0" d="M824.9,684.2c63.4,0,126.7,0,190.1,0c1.9,0,1.9-3,0-3c-63.4,0-126.7,0-190.1,0
				C822.9,681.2,822.9,684.2,824.9,684.2L824.9,684.2z"/>
		</g>
	</g>
	<g id="XMLID_2359_">
		<g id="XMLID_2427_">
			<path id="XMLID_2431_" class="st0" d="M1015.6,682.7c0-109.9,0-219.8,0-329.7c0-31.3,0-62.6,0-93.9c0-1.9-3-1.9-3,0
				c0,4.4,0,8.8,0,13.3c0,1.9,3,1.9,3,0c0-4.4,0-8.8,0-13.3c-1,0-2,0-3,0c0,109.9,0,219.8,0,329.7c0,31.3,0,62.6,0,93.9
				C1012.6,684.6,1015.6,684.6,1015.6,682.7L1015.6,682.7z"/>
		</g>
	</g>
	<g id="XMLID_2367_">
		<g id="XMLID_2435_">
			<path id="XMLID_2440_" class="st0" d="M1014.1,256.2c-61.8,0-123.7,0-185.5,0c-1.9,0-1.9,3,0,3c61.8,0,123.7,0,185.5,0
				C1016,259.2,1016,256.2,1014.1,256.2L1014.1,256.2z"/>
		</g>
	</g>
	<g id="XMLID_2375_">
		<g id="XMLID_2443_">
			<path id="XMLID_2448_" class="st0" d="M845.6,337.5c0-16.4,0-32.8,0-49.3c0-1.9-3-1.9-3,0c0,16.4,0,32.8,0,49.3
				C842.6,339.4,845.6,339.4,845.6,337.5L845.6,337.5z"/>
		</g>
	</g>
	<g id="XMLID_2384_">
		<g id="XMLID_2451_">
			<path id="XMLID_2456_" class="st0" d="M844.1,289c47.8,0,95.6,0,143.5,0c1.9,0,1.9-3,0-3c-47.8,0-95.6,0-143.5,0
				C842.2,286,842.2,289,844.1,289L844.1,289z"/>
		</g>
	</g>
	<g id="XMLID_2392_">
		<g id="XMLID_2459_">
			<path id="XMLID_2464_" class="st0" d="M987.5,289.7c0,13.8,0,27.5,0,41.3c0,1.9,3,1.9,3,0c0-13.8,0-27.5,0-41.3
				C990.5,287.8,987.5,287.8,987.5,289.7L987.5,289.7z"/>
		</g>
	</g>
	<g id="XMLID_2400_">
		<g id="XMLID_2468_">
			<path id="XMLID_2472_" class="st0" d="M845.6,339c47.3,0,94.7,0,142,0c1.9,0,1.9-3,0-3c-47.3,0-94.7,0-142,0
				C843.6,336,843.6,339,845.6,339L845.6,339z"/>
		</g>
	</g>
	<g id="XMLID_2408_">
		<g id="XMLID_2476_">
			<path id="XMLID_2480_" class="st0" d="M908.4,322.2c-3.3-1.5-5.5-4.9-4.8-8.6c0.9-4.4,6.1-7.6,10.2-5.3c3.7,2.1,3.8,7.6,1.7,11
				c-2,3.4-7.1,4.5-9.4,0.8c-1-1.6-3.6-0.1-2.6,1.5c2.9,4.7,9.5,5,13.2,1.1c3.9-4.1,4.5-12.4-0.1-16.2c-4.7-3.9-12-1.5-14.8,3.5
				c-3.1,5.4-0.4,12.2,5.1,14.8C908.6,325.7,910.2,323.1,908.4,322.2L908.4,322.2z"/>
		</g>
	</g>
	<g id="XMLID_2449_">
		<g id="XMLID_2517_">
			<path id="XMLID_2521_" class="st0" d="M844.6,440.5c0-16.4,0-32.8,0-49.3c0-1.9-3-1.9-3,0c0,16.4,0,32.8,0,49.3
				C841.6,442.4,844.6,442.4,844.6,440.5L844.6,440.5z"/>
		</g>
	</g>
	<g id="XMLID_2441_">
		<g id="XMLID_2510_">
			<path id="XMLID_2514_" class="st0" d="M843.1,392c47.8,0,95.6,0,143.5,0c1.9,0,1.9-3,0-3c-47.8,0-95.6,0-143.5,0
				C841.2,389,841.2,392,843.1,392L843.1,392z"/>
		</g>
	</g>
	<g id="XMLID_2433_">
		<g id="XMLID_2503_">
			<path id="XMLID_2507_" class="st0" d="M986.5,392.7c0,13.8,0,27.5,0,41.3c0,1.9,3,1.9,3,0c0-13.8,0-27.5,0-41.3
				C989.5,390.8,986.5,390.8,986.5,392.7L986.5,392.7z"/>
		</g>
	</g>
	<g id="XMLID_2424_">
		<g id="XMLID_2496_">
			<path id="XMLID_2500_" class="st0" d="M844.6,442c47.3,0,94.7,0,142,0c1.9,0,1.9-3,0-3c-47.3,0-94.7,0-142,0
				C842.6,439,842.6,442,844.6,442L844.6,442z"/>
		</g>
	</g>
	<g id="XMLID_2416_">
		<g id="XMLID_2489_">
			<path id="XMLID_2493_" class="st0" d="M907.4,425.2c-3.3-1.5-5.5-4.9-4.8-8.6c0.9-4.4,6.1-7.6,10.2-5.3c3.7,2.1,3.8,7.6,1.7,11
				c-2,3.4-7.1,4.5-9.4,0.8c-1-1.6-3.6-0.1-2.6,1.5c2.9,4.7,9.5,5,13.2,1.1c3.9-4.1,4.5-12.4-0.1-16.2c-4.7-3.9-12-1.5-14.8,3.5
				c-3.1,5.4-0.4,12.2,5.1,14.8C907.6,428.7,909.2,426.1,907.4,425.2L907.4,425.2z"/>
		</g>
	</g>
	<g id="XMLID_2475_">
		<g id="XMLID_2557_">
			<path id="XMLID_2562_" class="st0" d="M846.5,549.9c0-16.4,0-32.8,0-49.3c0-1.9-3-1.9-3,0c0,16.4,0,32.8,0,49.3
				C843.5,551.8,846.5,551.8,846.5,549.9L846.5,549.9z"/>
		</g>
	</g>
	<g id="XMLID_2473_">
		<g id="XMLID_2550_">
			<path id="XMLID_2555_" class="st0" d="M845,501.4c47.8,0,95.6,0,143.5,0c1.9,0,1.9-3,0-3c-47.8,0-95.6,0-143.5,0
				C843.1,498.4,843.1,501.4,845,501.4L845,501.4z"/>
		</g>
	</g>
	<g id="XMLID_2466_">
		<g id="XMLID_2543_">
			<path id="XMLID_2548_" class="st0" d="M988.4,502.1c0,13.8,0,27.5,0,41.3c0,1.9,3,1.9,3,0c0-13.8,0-27.5,0-41.3
				C991.4,500.1,988.4,500.1,988.4,502.1L988.4,502.1z"/>
		</g>
	</g>
	<g id="XMLID_2465_">
		<g id="XMLID_2536_">
			<path id="XMLID_2541_" class="st0" d="M846.4,551.4c47.3,0,94.7,0,142,0c1.9,0,1.9-3,0-3c-47.3,0-94.7,0-142,0
				C844.5,548.4,844.5,551.4,846.4,551.4L846.4,551.4z"/>
		</g>
	</g>
	<g id="XMLID_2457_">
		<g id="XMLID_2529_">
			<path id="XMLID_2534_" class="st0" d="M909.3,534.6c-3.3-1.5-5.5-4.9-4.8-8.6c0.9-4.4,6.1-7.6,10.2-5.3c3.7,2.1,3.8,7.6,1.7,11
				c-2,3.4-7.1,4.5-9.4,0.8c-1-1.6-3.6-0.1-2.6,1.5c2.9,4.7,9.5,5,13.2,1.1c3.9-4.1,4.5-12.4-0.1-16.2c-4.7-3.9-12-1.5-14.8,3.5
				c-3.1,5.4-0.4,12.2,5.1,14.8C909.5,538,911,535.5,909.3,534.6L909.3,534.6z"/>
		</g>
	</g>
	<g id="XMLID_2482_">
		<g id="XMLID_2566_">
			<path id="XMLID_2570_" class="st0" d="M825.7,268.5c-0.3-3.5-0.2-7,0.4-10.4c-0.5,0.4-1,0.7-1.4,1.1c3.1,0,6.1,0,9.2-0.1
				c1.9,0,1.9-3,0-3c-3.1,0-6.1,0-9.2,0.1c-0.6,0-1.3,0.5-1.4,1.1c-0.6,3.7-0.8,7.5-0.5,11.2C822.9,270.4,825.9,270.4,825.7,268.5
				L825.7,268.5z"/>
		</g>
	</g>
	<g id="XMLID_2494_">
		<g id="XMLID_2574_">
			<path id="XMLID_2578_" class="st0" d="M845.7,257.1c0-4.2,0-8.4,0-12.6c0-1.9-3-1.9-3,0c0,4.2,0,8.4,0,12.6
				C842.7,259,845.7,259,845.7,257.1L845.7,257.1z"/>
		</g>
	</g>
	<g id="XMLID_2501_">
		<g id="XMLID_2582_">
			<path id="XMLID_2587_" class="st0" d="M844.7,245.4c35.3,0,70.6,0,105.9,0c1.9,0,1.9-3,0-3c-35.3,0-70.6,0-105.9,0
				C842.8,242.4,842.8,245.4,844.7,245.4L844.7,245.4z"/>
		</g>
	</g>
	<g id="XMLID_2508_">
		<g id="XMLID_2590_">
			<path id="XMLID_2595_" class="st0" d="M949.1,245c0,4.2,0,8.4,0,12.6c0,1.9,3,1.9,3,0c0-4.2,0-8.4,0-12.6
				C952.1,243.1,949.1,243.1,949.1,245L949.1,245z"/>
		</g>
	</g>
	<g id="XMLID_2515_">
		<g id="XMLID_2598_">
			<path id="XMLID_2603_" class="st0" d="M865.7,244.5c0-4.4,0-8.8,0-13.2c0-1.9-3-1.9-3,0c0,4.4,0,8.8,0,13.2
				C862.7,246.4,865.7,246.4,865.7,244.5L865.7,244.5z"/>
		</g>
	</g>
	<g id="XMLID_2522_">
		<g id="XMLID_2606_">
			<path id="XMLID_2611_" class="st0" d="M865.9,231.7c32.2,0,64.5,0,96.7,0c1.9,0,1.9-3,0-3c-32.2,0-64.5,0-96.7,0
				C864,228.7,864,231.7,865.9,231.7L865.9,231.7z"/>
		</g>
	</g>
	<g id="XMLID_2535_">
		<g id="XMLID_2615_">
			<path id="XMLID_2619_" class="st0" d="M947.6,245.3c4.6,0,9.2,0,13.9,0c1.9,0,1.9-3,0-3c-4.6,0-9.2,0-13.9,0
				C945.7,242.3,945.7,245.3,947.6,245.3L947.6,245.3z"/>
		</g>
	</g>
	<g id="XMLID_2549_">
		<g id="XMLID_2623_">
			<path id="XMLID_2627_" class="st0" d="M961.1,231c0,3.8,0,7.5,0,11.3c0,1.9,3,1.9,3,0c0-3.8,0-7.5,0-11.3
				C964.1,229.1,961.1,229.1,961.1,231L961.1,231z"/>
		</g>
	</g>
	<g id="XMLID_2563_">
		<g id="XMLID_2631_">
			<path id="XMLID_2636_" class="st0" d="M841.8,219.4c0,3.8,0,7.5,0,11.3c0,1.9,3,1.9,3,0c0-3.8,0-7.5,0-11.3
				C844.8,217.4,841.8,217.4,841.8,219.4L841.8,219.4z"/>
		</g>
	</g>
	<g id="XMLID_2571_">
		<g id="XMLID_2639_">
			<path id="XMLID_2644_" class="st0" d="M844.4,220.1c29.7,0,59.3,0,89,0c1.9,0,1.9-3,0-3c-29.7,0-59.3,0-89,0
				C842.5,217.1,842.5,220.1,844.4,220.1L844.4,220.1z"/>
		</g>
	</g>
	<g id="XMLID_2580_">
		<g id="XMLID_2647_">
			<path id="XMLID_2652_" class="st0" d="M933,218.6c0,2.8,0,5.6,0,8.4c0,1.9,3,1.9,3,0c0-2.8,0-5.6,0-8.4
				C936,216.7,933,216.7,933,218.6L933,218.6z"/>
		</g>
	</g>
	<g id="XMLID_2588_">
		<g id="XMLID_2655_">
			<path id="XMLID_2660_" class="st0" d="M844,232.2c7.3,0,14.6,0,21.9,0c1.9,0,1.9-3,0-3c-7.3,0-14.6,0-21.9,0
				C842.1,229.2,842.1,232.2,844,232.2L844,232.2z"/>
		</g>
	</g>
	<g id="XMLID_2596_">
		<g id="XMLID_2664_">
			<path id="XMLID_2668_" class="st0" d="M842.6,672.4c43,0,86.1,0,129.1,0c1.9,0,1.9-3,0-3c-43,0-86.1,0-129.1,0
				C840.7,669.4,840.7,672.4,842.6,672.4L842.6,672.4z"/>
		</g>
	</g>
	<g id="XMLID_2604_">
		<g id="XMLID_2672_">
			<path id="XMLID_2676_" class="st0" d="M1344.3,418.4c0-16.8,0-33.5,0-50.3c0-1.9-3-1.9-3,0c0,16.8,0,33.5,0,50.3
				C1341.3,420.3,1344.3,420.3,1344.3,418.4L1344.3,418.4z"/>
		</g>
	</g>
	<g id="XMLID_2612_">
		<g id="XMLID_2680_">
			<path id="XMLID_2685_" class="st0" d="M1296.5,419.9c31.7,0,63.3,0,95,0c1.9,0,1.9-3,0-3c-31.7,0-63.3,0-95,0
				C1294.5,416.9,1294.5,419.9,1296.5,419.9L1296.5,419.9z"/>
		</g>
	</g>
	<g id="XMLID_2620_">
		<g id="XMLID_2688_">
			<path id="XMLID_2693_" class="st0" d="M1363.6,418.4c0,10.4,0,20.8,0,31.1c0,1.9,3,1.9,3,0c0-10.4,0-20.8,0-31.1
				C1366.6,416.5,1363.6,416.5,1363.6,418.4L1363.6,418.4z"/>
		</g>
	</g>
	<g id="XMLID_2629_">
		<g id="XMLID_2696_">
			<path id="XMLID_2701_" class="st0" d="M1330.8,455c28.5,0,56.9,0,85.4,0c1.9,0,1.9-3,0-3c-28.5,0-56.9,0-85.4,0
				C1328.9,452,1328.9,455,1330.8,455L1330.8,455z"/>
		</g>
	</g>
	<g id="XMLID_2637_">
		<g id="XMLID_2704_">
			<path id="XMLID_2709_" class="st0" d="M919.3-48.1c0-26.1,0-52.1,0-78.2c0-1.9-3-1.9-3,0c0,26.1,0,52.1,0,78.2
				C916.3-46.2,919.3-46.2,919.3-48.1L919.3-48.1z"/>
		</g>
	</g>
	<g id="XMLID_2645_">
		<g id="XMLID_2713_">
			<path id="XMLID_2717_" class="st0" d="M917.8-123.3c41.5,0,82.9,0,124.4,0c1.9,0,1.9-3,0-3c-41.5,0-82.9,0-124.4,0
				C915.9-126.3,915.9-123.3,917.8-123.3L917.8-123.3z"/>
		</g>
	</g>
	<g id="XMLID_2653_">
		<g id="XMLID_2721_">
			<path id="XMLID_2725_" class="st0" d="M1040.7-124.1c0,23.3,0,46.7,0,70c0,1.9,3,1.9,3,0c0-23.3,0-46.7,0-70
				C1043.7-126,1040.7-126,1040.7-124.1L1040.7-124.1z"/>
		</g>
	</g>
	<g id="XMLID_2661_">
		<g id="XMLID_2729_">
			<path id="XMLID_2734_" class="st0" d="M917.1-46.6c41.2,0,82.4,0,123.6,0c1.9,0,1.9-3,0-3c-41.2,0-82.4,0-123.6,0
				C915.2-49.6,915.1-46.6,917.1-46.6L917.1-46.6z"/>
		</g>
	</g>
	<g id="XMLID_2669_">
		<g id="XMLID_2737_">
			<path id="XMLID_2742_" class="st0" d="M926-54.8c0-21.1,0-42.2,0-63.3c0-1.9-3-1.9-3,0c0,21.1,0,42.2,0,63.3
				C923-52.9,926-52.9,926-54.8L926-54.8z"/>
		</g>
	</g>
	<g id="XMLID_2678_">
		<g id="XMLID_2745_">
			<path id="XMLID_2750_" class="st0" d="M924.5-116.6c36.2,0,72.5,0,108.7,0c1.9,0,1.9-3,0-3c-36.2,0-72.5,0-108.7,0
				C922.6-119.6,922.6-116.6,924.5-116.6L924.5-116.6z"/>
		</g>
	</g>
	<g id="XMLID_2686_">
		<g id="XMLID_2753_">
			<path id="XMLID_2758_" class="st0" d="M1032.5-115.9c0,18.4,0,36.7,0,55.1c0,1.9,3,1.9,3,0c0-18.4,0-36.7,0-55.1
				C1035.5-117.8,1032.5-117.8,1032.5-115.9L1032.5-115.9z"/>
		</g>
	</g>
	<g id="XMLID_2694_">
		<g id="XMLID_2762_">
			<path id="XMLID_2766_" class="st0" d="M926.8-52.6c35.3,0,70.5,0,105.8,0c1.9,0,1.9-3,0-3c-35.3,0-70.5,0-105.8,0
				C924.8-55.6,924.8-52.6,926.8-52.6L926.8-52.6z"/>
		</g>
	</g>
	<g id="XMLID_2702_">
		<g id="XMLID_2770_">
			<path id="XMLID_2774_" class="st0" d="M928.3-55.5c20.1-17.3,39.8-35.1,59.1-53.3c1.4-1.3-0.7-3.4-2.1-2.1
				c-19.3,18.3-39,36-59.1,53.3C924.7-56.4,926.9-54.3,928.3-55.5L928.3-55.5z"/>
		</g>
	</g>
	<g id="XMLID_2710_">
		<g id="XMLID_2777_">
			<path id="XMLID_2781_" class="st0" d="M961.2-55.4c16-18.7,33.1-36.4,51.2-53.1c1.4-1.3-0.7-3.4-2.1-2.1
				c-18.1,16.7-35.2,34.4-51.2,53.1C957.8-56,959.9-53.9,961.2-55.4L961.2-55.4z"/>
		</g>
	</g>
	<g id="XMLID_2718_">
		<g id="XMLID_2784_">
			<path id="XMLID_2788_" class="st0" d="M969.8-125c0.3-1.9,0.9-3.7,2-5.3c1-1.5,3.2-4.1,5.2-4c3,0.1,2.4,6.4,3.2,8.4
				c0.7,1.8,3.6,1,2.9-0.8c-1.4-3.6-0.2-10.7-6.1-10.6c-5.5,0.1-9.3,6.8-10.1,11.5C966.6-123.9,969.5-123.1,969.8-125L969.8-125z"/>
		</g>
	</g>
	<g id="XMLID_2727_">
		<g id="XMLID_2791_">
			<path id="XMLID_2795_" class="st0" d="M1711.5,209.2c0-5.5,0-11,0-16.4c0-1.9-3-1.9-3,0c0,5.5,0,11,0,16.4
				C1708.5,211.1,1711.5,211.1,1711.5,209.2L1711.5,209.2z"/>
		</g>
	</g>
	<g id="XMLID_2735_">
		<g id="XMLID_2798_">
			<path id="XMLID_2802_" class="st0" d="M1710,194.3c70,0,140,0,210.1,0c1.9,0,1.9-3,0-3c-70,0-140,0-210.1,0
				C1708.1,191.3,1708.1,194.3,1710,194.3L1710,194.3z"/>
		</g>
	</g>
	<g id="XMLID_2743_">
		<g id="XMLID_2805_">
			<path id="XMLID_2809_" class="st0" d="M1710,210c70,0,140,0,210.1,0c1.9,0,1.9-3,0-3c-70,0-140,0-210.1,0
				C1708.1,207,1708.1,210,1710,210L1710,210z"/>
		</g>
	</g>
	<g id="XMLID_2751_">
		<g id="XMLID_2812_">
			<path id="XMLID_2816_" class="st0" d="M1917.9,192.8c0,5.2,0,10.5,0,15.7c0,1.9,3,1.9,3,0c0-5.2,0-10.5,0-15.7
				C1920.9,190.8,1917.9,190.8,1917.9,192.8L1917.9,192.8z"/>
		</g>
	</g>
	<g id="XMLID_2759_">
		<g id="XMLID_2819_">
			<path id="XMLID_2823_" class="st0" d="M1720.8,191.3c0-31.2,0-62.4,0-93.6c0-1.9-3-1.9-3,0c0,31.2,0,62.4,0,93.6
				C1717.8,193.3,1720.8,193.3,1720.8,191.3L1720.8,191.3z"/>
		</g>
	</g>
	<g id="XMLID_2767_">
		<g id="XMLID_2826_">
			<path id="XMLID_2830_" class="st0" d="M1718.6,96.4c7.6,0,15.2,0,22.9,0c1.9,0,1.9-3,0-3c-7.6,0-15.2,0-22.9,0
				C1716.7,93.4,1716.7,96.4,1718.6,96.4L1718.6,96.4z"/>
		</g>
	</g>
	<g id="XMLID_2775_">
		<g id="XMLID_2833_">
			<path id="XMLID_2837_" class="st0" d="M1740.7,87c0,34.8,0,69.5,0,104.3c0,1.9,3,1.9,3,0c0-34.8,0-69.5,0-104.3
				C1743.7,85.1,1740.7,85.1,1740.7,87L1740.7,87z"/>
		</g>
	</g>
	<g id="XMLID_2782_">
		<g id="XMLID_2840_">
			<path id="XMLID_2844_" class="st0" d="M1742.9,87.1c7.9,0,15.7,0,23.6,0c1.9,0,1.9-3,0-3c-7.9,0-15.7,0-23.6,0
				C1741,84.1,1740.9,87.1,1742.9,87.1L1742.9,87.1z"/>
		</g>
	</g>
	<g id="XMLID_2789_">
		<g id="XMLID_2847_">
			<path id="XMLID_2851_" class="st0" d="M1765.7,85.6c0,34.8,0,69.5,0,104.3c0,1.9,3,1.9,3,0c0-34.8,0-69.5,0-104.3
				C1768.7,83.6,1765.7,83.6,1765.7,85.6L1765.7,85.6z"/>
		</g>
	</g>
	<g id="XMLID_2796_">
		<g id="XMLID_2854_">
			<path id="XMLID_2858_" class="st0" d="M1768.7,93.4c0-9.5,0-19.1,0-28.6c0-1.9-3-1.9-3,0c0,9.5,0,19.1,0,28.6
				C1765.7,95.4,1768.7,95.4,1768.7,93.4L1768.7,93.4z"/>
		</g>
	</g>
	<g id="XMLID_2803_">
		<g id="XMLID_2861_">
			<path id="XMLID_2865_" class="st0" d="M1767.9,64.9c10,0,20,0,30,0c1.9,0,1.9-3,0-3c-10,0-20,0-30,0
				C1766,61.9,1766,64.9,1767.9,64.9L1767.9,64.9z"/>
		</g>
	</g>
	<g id="XMLID_2810_">
		<g id="XMLID_2868_">
			<path id="XMLID_2872_" class="st0" d="M1796.4,64.9c0,41.9,0,83.8,0,125.8c0,1.9,3,1.9,3,0c0-41.9,0-83.8,0-125.8
				C1799.4,62.9,1796.4,62.9,1796.4,64.9L1796.4,64.9z"/>
		</g>
	</g>
	<g id="XMLID_2817_">
		<g id="XMLID_2875_">
			<path id="XMLID_2879_" class="st0" d="M1796.4,64.9c0,22.4,0,44.8,0,67.2c0,1.9,3,1.9,3,0c0-22.4,0-44.8,0-67.2
				C1799.4,62.9,1796.4,62.9,1796.4,64.9L1796.4,64.9z"/>
		</g>
	</g>
	<g id="XMLID_2824_">
		<g id="XMLID_2882_">
			<path id="XMLID_2886_" class="st0" d="M1808.7,190.6c0.1-3.9,0.1-7.8,0.2-11.7c-0.5,0.5-1,1-1.5,1.5c19-2.5,38.1-4,57.2-4.4
				c9.4-0.2,18.8-0.1,28.2,0.3c3.7,0.1,10.3-0.7,13.7,0.9c3.9,1.8,2.9,11.2,2.8,14.8c0,1.9,3,1.9,3,0c0-5.3,1.2-16.2-5.6-17.8
				c-4.4-1-9.4-0.7-13.9-0.9c-5.8-0.2-11.7-0.4-17.5-0.4c-22.7-0.1-45.4,1.4-67.9,4.4c-0.8,0.1-1.5,0.6-1.5,1.5
				c-0.1,3.9-0.1,7.8-0.2,11.7C1805.7,192.5,1808.7,192.5,1808.7,190.6L1808.7,190.6z"/>
		</g>
	</g>
	<g id="XMLID_2831_">
		<g id="XMLID_2889_">
			<path id="XMLID_2893_" class="st0" d="M1827.3,177c0-2.5-0.4-5.2,0-7.7c0.5-3.7,2.2-3.7,5.7-3.9c5.3-0.3,10.5-0.6,15.8-0.8
				c10.8-0.6,21.7-1.2,32.5-1.7c10.3-0.6,20.7-1.5,31.1-1.6c3.3,0,7,0.1,9.3,2.8c3.1,3.7,0.5,7.9-3.7,9.1c-4.3,1.2-8.9,0.3-13.2,1.3
				c-1.9,0.4-1.1,3.3,0.8,2.9c6.1-1.4,24.5,0.3,20.7-11.8c-1.3-4.2-5.5-6.5-9.6-7c-7.6-1.1-15.9,0.4-23.5,0.8
				c-15.8,0.8-31.5,1.7-47.3,2.5c-3.9,0.2-7.9,0.4-11.8,0.6c-2.2,0.1-5.4-0.3-7.5,0.8c-4.1,2.1-2.2,10.4-2.2,13.9
				C1824.3,179,1827.3,179,1827.3,177L1827.3,177z"/>
		</g>
	</g>
	<g id="XMLID_2838_">
		<g id="XMLID_2896_">
			<path id="XMLID_2900_" class="st0" d="M1658.5-185.1c0-18.8,0-37.6,0-56.5c0-1.9-3-1.9-3,0c0,18.8,0,37.6,0,56.5
				C1655.5-183.1,1658.5-183.1,1658.5-185.1L1658.5-185.1z"/>
		</g>
	</g>
	<g id="XMLID_2845_">
		<g id="XMLID_2903_">
			<path id="XMLID_2907_" class="st0" d="M1657-240c35.4,0,70.9,0,106.3,0c1.9,0,1.9-3,0-3c-35.4,0-70.9,0-106.3,0
				C1655-243,1655-240,1657-240L1657-240z"/>
		</g>
	</g>
	<g id="XMLID_2852_">
		<g id="XMLID_2910_">
			<path id="XMLID_2914_" class="st0" d="M1761.8-240.9c0,17.1,0,34.1,0,51.2c0,1.9,3,1.9,3,0c0-17.1,0-34.1,0-51.2
				C1764.8-242.8,1761.8-242.8,1761.8-240.9L1761.8-240.9z"/>
		</g>
	</g>
	<g id="XMLID_2859_">
		<g id="XMLID_2917_">
			<path id="XMLID_2921_" class="st0" d="M1657.6-184.2c34.8,0,69.5,0,104.3,0c1.9,0,1.9-3,0-3c-34.8,0-69.5,0-104.3,0
				C1655.7-187.2,1655.7-184.2,1657.6-184.2L1657.6-184.2z"/>
		</g>
	</g>
	<g id="XMLID_2866_">
		<g id="XMLID_2924_">
			<path id="XMLID_2928_" class="st0" d="M1699-240.9c-0.1-2.4,0-4.7,0.5-7c0.3-1.5,1.1-5.8,2.7-6.4c0.6,0.3,1.2,0.6,1.8,0.9
				c0.2,0.6,0.3,1.2,0.4,1.8c0.3,1.1,0.5,2.2,0.7,3.2c0.5,2.2,1,4.3,1.5,6.5c0.4,1.9,3.3,1.1,2.9-0.8c-0.9-3.8-1.5-7.8-2.7-11.5
				c-0.7-2.1-2.1-3.9-4.5-3.4c-2.6,0.5-3.9,3.2-4.7,5.4c-1.4,3.6-1.9,7.5-1.8,11.3C1696.1-239,1699.1-239,1699-240.9L1699-240.9z"/>
		</g>
	</g>
	<g id="XMLID_2873_">
		<g id="XMLID_2931_">
			<path id="XMLID_2935_" class="st0" d="M1664.5-193c19.4-14.6,39.8-27.6,61.1-39.1c1.7-0.9,0.2-3.5-1.5-2.6
				c-21.3,11.5-41.7,24.6-61.1,39.1C1661.4-194.4,1662.9-191.8,1664.5-193L1664.5-193z"/>
		</g>
	</g>
	<g id="XMLID_2880_">
		<g id="XMLID_2938_">
			<path id="XMLID_2942_" class="st0" d="M1690.5-193.4c16.7-13.3,34.7-24.9,53.6-34.8c1.7-0.9,0.2-3.5-1.5-2.6
				c-19.2,10.1-37.3,21.9-54.2,35.3C1686.9-194.3,1689-192.2,1690.5-193.4L1690.5-193.4z"/>
		</g>
	</g>
	<g id="XMLID_2887_">
		<g id="XMLID_2945_">
			<path id="XMLID_2949_" class="st0" d="M1732.9-92.7c0-10.4,0-20.8,0-31.2c0-1.9-3-1.9-3,0c0,10.4,0,20.8,0,31.2
				C1729.9-90.8,1732.9-90.8,1732.9-92.7L1732.9-92.7z"/>
		</g>
	</g>
	<g id="XMLID_2894_">
		<g id="XMLID_2952_">
			<path id="XMLID_2956_" class="st0" d="M1732-123.1c19.9,0,39.9,0,59.8,0c1.9,0,1.9-3,0-3c-19.9,0-39.9,0-59.8,0
				C1730.1-126.1,1730.1-123.1,1732-123.1L1732-123.1z"/>
		</g>
	</g>
	<g id="XMLID_2901_">
		<g id="XMLID_2959_">
			<path id="XMLID_2963_" class="st0" d="M1732-91.2c20.8,0,41.6,0,62.4,0c1.9,0,1.9-3,0-3c-20.8,0-41.6,0-62.4,0
				C1730.1-94.2,1730.1-91.2,1732-91.2L1732-91.2z"/>
		</g>
	</g>
	<g id="XMLID_2908_">
		<g id="XMLID_2966_">
			<path id="XMLID_2970_" class="st0" d="M1791.7-123.3c0,10.9,0,21.7,0,32.6c0,1.9,3,1.9,3,0c0-10.9,0-21.7,0-32.6
				C1794.7-125.2,1791.7-125.2,1791.7-123.3L1791.7-123.3z"/>
		</g>
	</g>
	<g id="XMLID_2915_">
		<g id="XMLID_2973_">
			<path id="XMLID_2977_" class="st0" d="M1756.8-125.3c-0.1-1.3,0.5-10.3,2.7-9.2c0.6,0.3,1,3.8,1.1,4.5c0.4,2,0.5,4,0.4,6
				c0,1.9,3,1.9,3,0c0-3.2-0.3-6.4-1.1-9.5c-0.5-1.8-1.2-4.6-3.6-4.7c-2.3-0.1-3.5,2.7-4.2,4.4c-1.1,2.7-1.5,5.6-1.3,8.5
				C1754-123.4,1757-123.4,1756.8-125.3L1756.8-125.3z"/>
		</g>
	</g>
	<g id="XMLID_2922_">
		<g id="XMLID_2980_">
			<path id="XMLID_2984_" class="st0" d="M1737-95.1c10.5-6.5,20.8-13.3,30.8-20.5c1.5-1.1,0.1-3.7-1.5-2.6
				c-10,7.2-20.3,14.1-30.8,20.5C1733.8-96.7,1735.3-94.1,1737-95.1L1737-95.1z"/>
		</g>
	</g>
	<g id="XMLID_2929_">
		<g id="XMLID_2987_">
			<path id="XMLID_2991_" class="st0" d="M1753.8-94.2c8.8-7,17.9-13.4,27.4-19.4c1.6-1,0.1-3.6-1.5-2.6c-9.7,6.1-19,12.7-28,19.9
				C1750.2-95.1,1752.3-93,1753.8-94.2L1753.8-94.2z"/>
		</g>
	</g>
	<g id="XMLID_2936_">
		<g id="XMLID_2994_">
			<path id="XMLID_2998_" class="st0" d="M863.5,19.2c0,14.3,0,28.6,0,42.9c0,1.9,3,1.9,3,0c0-14.3,0-28.6,0-42.9
				C866.5,17.2,863.5,17.2,863.5,19.2L863.5,19.2z"/>
		</g>
	</g>
	<g id="XMLID_2943_">
		<g id="XMLID_3001_">
			<path id="XMLID_3005_" class="st0" d="M841,65.3c22.3,0,44.6,0,67,0c1.9,0,1.9-3,0-3c-22.3,0-44.6,0-67,0
				C839.1,62.3,839.1,65.3,841,65.3L841,65.3z"/>
		</g>
	</g>
	<g id="XMLID_2950_">
		<g id="XMLID_3008_">
			<path id="XMLID_3012_" class="st0" d="M885.9,65.5c0,8.6,0,17.2,0,25.8c0,1.9,3,1.9,3,0c0-8.6,0-17.2,0-25.8
				C888.9,63.6,885.9,63.6,885.9,65.5L885.9,65.5z"/>
		</g>
	</g>
</g>
<g id="details">
	<circle id="XMLID_2957_" class="st1" cx="1233.6" cy="-289.9" r="12.1"/>
	<circle id="XMLID_2964_" class="st1" cx="1266.6" cy="-267" r="10.8"/>
	<circle id="XMLID_2971_" class="st2" cx="1666.2" cy="296.8" r="9.3"/>
	<circle id="XMLID_2978_" class="st2" cx="1635.8" cy="255.4" r="7.7"/>
	<circle id="XMLID_2985_" class="st2" cx="1272.1" cy="-305.5" r="5.5"/>
	<circle id="XMLID_2992_" class="st2" cx="927.4" cy="152.8" r="20.3"/>
	<circle id="XMLID_2999_" class="st1" cx="943.6" cy="130.7" r="19"/>
	<circle id="XMLID_3000_" class="st1" cx="1669" cy="248.9" r="6.5"/>
	<circle id="XMLID_3006_" class="st1" cx="1828.1" cy="-254" r="13.1"/>
	<g id="XMLID_3007_">
		<g id="XMLID_3024_">
			<path id="XMLID_3028_" class="st1" d="M1305.1-140.5c-2-1.1-1.9-3.8-1-5.4c1.1-1.8,2.5-2.6,4.6-3.2c2.5-0.6,5.1-0.6,7.6-0.9
				c3.1-0.4,6.5-1.2,8.8-3.6c2.9-2.9,2.4-6.7,2.1-10.4c-0.5-6.5,3.2-12.3,10-13c5.6-0.6,13.6,0.3,13.9-7.5
				c0.2-4.6-3.8-10.6,1.2-13.9c3.7-2.4,9.9-0.6,13.6,0.6c1.8,0.6,2.6-2.3,0.8-2.9c-6.3-2.1-18.1-3.8-19.8,5.1
				c-0.5,2.3,0.2,4.5,0.6,6.8c0.5,2.6,1.5,5.3-1.2,7.5c-1.3,1.1-3.6,0.9-5.2,1c-4.6,0.3-8.5,0.3-12.1,3.5c-3.5,3-5.1,7.3-4.9,11.9
				c0.2,4.9,0.6,9.5-5,11.2c-2.7,0.9-5.6,0.7-8.4,1.1c-4,0.5-8.1,1.8-9.8,5.8c-1.4,3.3-0.7,7,2.5,8.8
				C1305.3-137,1306.8-139.6,1305.1-140.5L1305.1-140.5z"/>
		</g>
	</g>
	<g id="XMLID_3013_">
		<g id="XMLID_3031_">
			<path id="XMLID_3035_" class="st1" d="M1342.9-159.7c-2.7-1.6-1.8-5.5,0.1-7.4c2.3-2.4,6.6-2.5,9.6-2.9c3.2-0.4,6.5-0.9,9.3-2.6
				c2.1-1.3,3.8-3.3,4.4-5.8c0.8-3.8-2.7-9.2-0.6-12.5c2.1-3.3,7.9-1.8,11.1-1.9c2.6-0.1,5-0.5,7.1-2.2c2.6-2.1,3.5-5.3,3.8-8.5
				c0.3-2.1,0.2-4.2,0.5-6.3c0.4-2.8,5-10.8,8.2-5.1c0.9,1.7,3.5,0.2,2.6-1.5c-1.6-2.9-4.9-3.8-8-2.6c-3.9,1.4-5.3,5.3-5.8,9.1
				c-0.5,3.5,0.1,7.4-1.6,10.6c-1.9,3.5-5.7,3.6-9.2,3.5s-7.7-0.6-10.4,2.2c-3.1,3.3-1.3,7.5-0.7,11.4c1.5,9.9-10.4,8.5-16.6,10.1
				c-3.7,1-6.9,3-8,6.8c-1,3.3-0.1,6.4,2.8,8.2C1343-156.1,1344.5-158.7,1342.9-159.7L1342.9-159.7z"/>
		</g>
	</g>
	<g id="XMLID_3014_">
		<g id="XMLID_3038_">
			<path id="XMLID_3042_" class="st2" d="M1247.1,567.2c-3-3.7-1.8-9.3,1.6-12.3c4.3-3.8,10.4-1.9,13.3,2.6c3,4.6,2.4,10.3-1.9,13.9
				c-5.5,4.6-14.2,1.4-14.3-6.1c0-1.9-3-1.9-3,0c0.1,7.8,7.8,13.4,15.3,10.7c7.8-2.8,11-11.9,7.1-19c-3.4-6.2-11.3-9.7-17.5-5.2
				c-5.5,4.1-7.1,12.1-2.7,17.5C1246.2,570.8,1248.3,568.6,1247.1,567.2L1247.1,567.2z"/>
		</g>
	</g>
	<g id="XMLID_3015_">
		<g id="XMLID_3045_">
			<path id="XMLID_3049_" class="st2" d="M1267.4,581.6c-3.6-2.3-7.2-5.5-8.2-9.8c-1.5-6.5,4.5-12,10.6-8.5
				c3.9,2.3,7.6,6.9,6.9,11.7c-0.6,4.2-7.1,8.1-10.3,3.7c-1.1-1.5-3.7-0.1-2.6,1.5c3.4,4.7,10.2,4,13.8-0.2c5-5.8,0.6-14.2-4.6-18.1
				c-5.9-4.5-13.4-3.7-16.3,3.7c-3.1,7.7,2.9,14.7,9.1,18.6C1267.5,585.2,1269,582.6,1267.4,581.6L1267.4,581.6z"/>
		</g>
	</g>
	<g id="XMLID_3016_">
		<g id="XMLID_3052_">
			<path id="XMLID_3056_" class="st2" d="M940.9,471.5c-3-2.4-4.1-6.5-1.2-9.5c2.6-2.8,5.9-2.3,9.1-0.8c2.9,1.3,5.7,2.9,9,2.3
				c10.2-1.9,0.9-16.6,9.2-19.8c3.5-1.3,4.1,0.7,6.3,2.8c1.1,1,2.1,1.6,3.6,1.7c2.4,0.2,4.4-1.4,5.7-3.3c2.2-3.6,1.2-8.3,2.2-12.2
				c0.7-2.6,2.1-5.8,4.6-7c3.1-1.5,7.9,0.1,7.9,4c0,1.9,3,1.9,3,0c0.1-8.7-11.3-9.4-15.8-3.6c-1.3,1.7-2.1,3.8-2.7,5.8
				c-0.7,2.8,0.1,7.1-1.1,9.6c-3.6,7.6-5.7,2.1-7.5,0.4c-0.8-0.7-1.5-1.3-2.5-1.6c-1.6-0.6-3.4-0.4-5,0.4c-4.8,2.2-5.6,7.3-5.7,12
				c-0.1,2.7,1,7.4-3.6,8.1c-1.9,0.3-4-1-5.6-1.7c-2-0.9-3.9-2-6.2-2.1c-9.5-0.6-13,11.2-6,16.8
				C940.3,474.9,942.4,472.8,940.9,471.5L940.9,471.5z"/>
		</g>
	</g>
	<g id="XMLID_3017_">
		<g id="XMLID_3059_">
			<path id="XMLID_3063_" class="st2" d="M976.1,427c-1.9-3.6-1.1-8,1.8-10.9c3-2.9,6.3-1.8,9.8-2.8c4.8-1.4,5.1-5.3,5.4-9.7
				c1-13.2,22.1-6.1,23.7-19.6c0.2-1.9-2.8-1.9-3,0c-0.9,7.8-13.3,7-18.5,10.1c-2,1.2-3.6,2.7-4.4,4.9c-1,2.6-0.2,5.5-1,8.1
				c-1.5,4.9-7.1,3-10.7,4.5c-1.8,0.8-3.2,2-4.4,3.5c-3.1,3.9-3.5,9-1.3,13.3C974.4,430.2,977,428.7,976.1,427L976.1,427z"/>
		</g>
	</g>
	<g id="XMLID_3018_">
		<g id="XMLID_3072_">
			<path id="XMLID_3076_" class="st1" d="M883.5-138.3c-2.8-7.7-3.7-18,4.4-22.9c7.7-4.6,15.1,2.5,15.9,10.1
				c0.7,6.8-3.8,14.3-10.5,16.3c-6.9,2-14.2-2.6-15.5-9.6c-0.3-1.9-3.2-1.1-2.9,0.8c1.6,8.6,10.8,14.2,19.2,11.7
				c8.5-2.4,14-11.9,12.6-20.4c-1.4-8.7-9.7-16.1-18.6-12.2c-10.8,4.6-10.9,17.6-7.4,27.1C881.2-135.7,884.1-136.4,883.5-138.3
				L883.5-138.3z"/>
		</g>
	</g>
	<g id="XMLID_3020_">
		<g id="XMLID_3079_">
			<path id="XMLID_3083_" class="st1" d="M894.6-155.1c-12-2.2-6.3-21.7,2.6-24c7.6-2,10.3,7,9,12.8c-0.5,2.3-1.3,4.6-2.5,6.7
				c-1.5,2.7-6.6,8.1-9,2.4c-0.8-1.8-3.3-0.2-2.6,1.5c1.2,2.9,4.2,4.2,7.2,3.7c3.7-0.7,6-4.2,7.6-7.4c3.5-7.3,4.6-18.1-4.1-22.2
				c-14.7-7-27.1,26.2-9.1,29.4C895.6-151.9,896.5-154.7,894.6-155.1L894.6-155.1z"/>
		</g>
	</g>
	<g id="XMLID_3022_">
		<g id="XMLID_3086_">
			<path id="XMLID_3090_" class="st2" d="M1659.4,390.8c-4.1-8.1,7.8-13.1,11.3-4.9c0.2,0.6,1.1,0.9,1.7,0.7
				c4.4-1.7,6.1-5.3,8.3-9.2c1.6-2.9,3.4-6.5,7.2-6.8c4.4-0.4,8,3.9,7.6,8.1c-0.2,1.9,2.8,1.9,3,0c0.7-6.3-5.5-12.2-11.9-10.9
				c-8.4,1.7-7.7,13.2-14.9,16c0.6,0.2,1.1,0.5,1.7,0.7c-5.1-11.9-22.3-3.6-16.5,8C1657.7,394,1660.3,392.5,1659.4,390.8
				L1659.4,390.8z"/>
		</g>
	</g>
	<g id="XMLID_3029_">
		<g id="XMLID_3093_">
			<path id="XMLID_3097_" class="st2" d="M1629.8-103c-3.9,4.3-5.1,10.3-3,15.8c1,2.5,2.7,4.5,4.8,6.1c3.2,2.5,9.6,4.9,8.4,9.7
				c-1,4.5-6.8,8.8-0.9,12.8c2.3,1.6,5.3,1.7,7.9,2.6c5.3,1.8,7.9,8,3.6,12.5c-1.3,1.4,0.8,3.5,2.1,2.1c3.5-3.7,4-9.3,1-13.6
				c-1.5-2.1-3.6-3.2-6-3.9c-1.5-0.5-3.1-0.7-4.6-1.2c-3.5-1.1-3.6-3.8-2.1-6.9c1.1-2.4,2.7-4,2.1-6.8c-0.5-2.3-2.2-4-3.9-5.4
				c-3-2.4-6.9-4-9-7.4c-2.7-4.5-1.9-10.4,1.5-14.2C1633.2-102.3,1631.1-104.4,1629.8-103L1629.8-103z"/>
		</g>
	</g>
	<g id="XMLID_3036_">
		<g id="XMLID_3100_">
			<path id="XMLID_3104_" class="st2" d="M1662.7-68.8c-2.9,0.8-4.5,3.4-4.2,6.5c0.4,4.1,4.1,6.2,7.2,8.2c2.3,1.5,3.3,2.3,3.9,5.1
				c0.6,2.5,0.1,2.8,0,4.9c0,1.3,0.3,2.4,1.1,3.5c1,1.4,2.7,2.1,4.1,3.1c3.6,2.5,4.8,6.3,3.3,10.4c-0.7,1.8,2.2,2.6,2.9,0.8
				c1.1-3.1,1.1-6.3-0.4-9.2c-1.6-3.2-7.9-5.6-8-9c0-1.5,1-2.8,0.8-4.4c-0.2-1.3-0.7-2.5-1.5-3.6c-1.3-1.8-3-3-4.9-4.3
				c-2.2-1.4-9.5-7.6-3.7-9.2C1665.3-66.4,1664.5-69.3,1662.7-68.8L1662.7-68.8z"/>
		</g>
	</g>
	<g id="XMLID_3043_">
		<g id="XMLID_3107_">
			<path id="XMLID_3111_" class="st1" d="M1324.6,213.9c-1.7-3-0.6-7.5,3.1-8.4c2.5-0.6,5.7,0.6,7.1,2.8c3.6,5.4-5.1,10.6-9.3,6.9
				c-1.4-1.3-3.6,0.8-2.1,2.1c7,6.2,19.9-2.7,13.7-11c-2.5-3.3-7.4-4.9-11.2-3.4c-4.9,2-6.2,8.1-3.8,12.4
				C1323,217.1,1325.5,215.6,1324.6,213.9L1324.6,213.9z"/>
		</g>
	</g>
	<g id="XMLID_3050_">
		<g id="XMLID_3114_">
			<path id="XMLID_3118_" class="st2" d="M1326.7,205.1c-2.6-5.2-3.5-11.7,0.1-16.7c3.3-4.6,10.2-6,14.3-1.8
				c4.1,4.1,3.9,10.7,0.8,15.4c-3.5,5.3-10.4,6.6-16.1,4.6c-1.8-0.7-2.6,2.2-0.8,2.9c7,2.6,15.3,0.5,19.5-5.9
				c3.9-6,3.8-14.9-1.8-19.7c-4.9-4.3-12.4-3-16.9,1.3c-5.9,5.7-5,14.8-1.7,21.6C1325,208.3,1327.5,206.8,1326.7,205.1L1326.7,205.1
				z"/>
		</g>
	</g>
	<g id="XMLID_3051_">
		<g id="XMLID_3121_">
			<path id="XMLID_3125_" class="st1" d="M1827.7,32.2c9.1-7.3,18.3-14.7,27.4-22c-0.9-0.4-1.7-0.7-2.6-1.1
				c-0.8,6.6-2.6,12.9-5.6,18.8c-0.6,1.3,0.7,2.9,2.1,2.1c10.9-6.9,22.2-13.2,33.9-18.7c-0.7-0.7-1.4-1.4-2.1-2.1
				c-4.2,6-6.9,12.5-8.3,19.7c-0.2,1.2,1,2.4,2.2,1.7c9.9-5.8,19.7-11.6,29.6-17.4c-0.7-0.6-1.5-1.1-2.2-1.7
				c-1.2,5.9-2.3,11.7-3.5,17.6c-0.4,1.9,2.5,2.7,2.9,0.8c1.2-5.9,2.3-11.7,3.5-17.6c0.2-1.2-1-2.4-2.2-1.7
				c-9.9,5.8-19.7,11.6-29.6,17.4c0.7,0.6,1.5,1.1,2.2,1.7c1.3-6.9,4-13.2,8-19c0.9-1.3-0.8-2.6-2.1-2.1
				c-11.7,5.5-23,11.8-33.9,18.7c0.7,0.7,1.4,1.4,2.1,2.1c3.2-6.5,5.2-13.2,6-20.4c0.2-1.4-1.7-1.8-2.6-1.1
				c-9.1,7.3-18.3,14.7-27.4,22C1824.1,31.3,1826.2,33.4,1827.7,32.2L1827.7,32.2z"/>
		</g>
	</g>
	<g id="XMLID_3057_">
		<g id="XMLID_3128_">
			<path id="XMLID_3132_" class="st1" d="M1865.9,51.3c6.8-4.3,13.5-8.6,20.2-12.9c-0.8-0.4-1.5-0.9-2.3-1.3
				c-0.6,4.8-1.8,9.2-3.5,13.7c-0.5,1.3,1.1,2.3,2.2,1.7c11.2-6.1,22-12.8,32.4-20c-0.7-0.6-1.5-1.1-2.2-1.7c-2,4.8-4,9.6-6,14.3
				c-0.7,1.8,2.2,2.6,2.9,0.8c2-4.8,4-9.6,6-14.3c0.5-1.2-1.2-2.4-2.2-1.7c-10.5,7.2-21.3,13.9-32.4,20c0.7,0.6,1.5,1.1,2.2,1.7
				c1.8-4.7,2.9-9.5,3.6-14.5c0.1-1.1-1.4-1.9-2.3-1.3c-6.7,4.3-13.5,8.6-20.2,12.9C1862.8,49.8,1864.3,52.3,1865.9,51.3
				L1865.9,51.3z"/>
		</g>
	</g>
	<circle id="XMLID_3058_" class="st2" cx="1282.3" cy="340.8" r="16.9"/>
</g>
<g id="girl">
	<g id="leg_right_1_">
		<path id="XMLID_1760_" d="M1515.4,686.4c1.1,6.7,2.2,13.4,3.3,20c-12.5,13.8-23.9,22.7-32.2,28.4c-9.3,6.4-22.4,14.1-33.8,30.1
			c-1.5,2.1-2.6,3.8-3.3,5c11.1-3.2,22.3-6.4,33.4-9.6c24.8-7.2,49.6-14.4,74.3-21.7c-4-25.1-8.1-50.1-12.1-75.2
			C1535.1,671.1,1525.3,678.7,1515.4,686.4z"/>
		<path id="XMLID_1748_" class="st3" d="M1456.1,356.1c0.2,6.3,0.6,15.4,1.4,26.4c1.1,16.7,4.1,54.9,19.6,135.2
			c11,56.9,22.4,104.9,33.8,152.8c1.7,7.1,3.1,12.9,4.1,16.9c10.8-2,21.6-4.1,32.4-6.1c-1.5-10.8-3.6-27-6.1-46.6
			c-9.6-76.1-15.6-124.5-18.3-181.9c-1.1-23.9-1.9-57.7-0.7-98.7C1500.2,354.7,1478.1,355.4,1456.1,356.1z"/>
		<path id="XMLID_1768_" class="st4" d="M1492.3,366.5c1,7.2,2.5,18.1,4.3,31.2c6.9,49.4,12.3,85.8,13.4,93.6
			c4.7,31.6,12.3,87.2,25.3,192c3.9-0.4,7.9-0.7,11.8-1.1c-1.7-10.9-4.2-27.8-7-48.4c-6.6-49-15.3-114.2-18.3-195.8
			c-0.6-16.3-1.2-39.8-1.1-68.3C1511.3,368.7,1501.8,367.6,1492.3,366.5z"/>
		<g id="XMLID_1717_">
			<g id="XMLID_1771_">
				<path id="XMLID_1775_" class="st5" d="M1454.3,357.7c6.9,92,25.1,182.6,45.8,272.4c5.9,25.7,12,51.3,18.2,77
					c0.4,1.9,3.3,1.1,2.9-0.8c-21.3-89.2-42.7-178.6-55.3-269.5c-3.7-26.3-6.5-52.6-8.5-79.1
					C1457.2,355.8,1454.2,355.8,1454.3,357.7L1454.3,357.7z"/>
			</g>
		</g>
		<g id="XMLID_1724_">
			<g id="XMLID_1779_">
				<path id="XMLID_1784_" class="st5" d="M1519.6,372.3c-0.1,95.7,7.4,191.4,22.4,285.9c4.3,27,9.2,53.8,14.7,80.6
					c0.4,1.9,3.3,1.1,2.9-0.8c-19.2-93.8-31-189.1-35.2-284.8c-1.2-27-1.7-53.9-1.7-80.9C1522.6,370.4,1519.6,370.4,1519.6,372.3
					L1519.6,372.3z"/>
			</g>
		</g>
		<g id="XMLID_1725_">
			<g id="XMLID_1787_">
				<path id="XMLID_1792_" class="st5" d="M1518.9,705.8c-13,10.9-25.9,21.9-38.9,32.8c-11,9.3-23.3,18.2-31,30.7
					c-0.7,1.1,0.4,2.6,1.7,2.2c36.1-10.5,72.2-20.9,108.3-31.4c1.9-0.5,1.1-3.4-0.8-2.9c-36.1,10.5-72.2,20.9-108.3,31.4
					c0.6,0.7,1.1,1.5,1.7,2.2c7.8-12.8,20.7-21.9,32-31.4c12.5-10.5,24.9-21,37.4-31.5C1522.5,706.7,1520.3,704.6,1518.9,705.8
					L1518.9,705.8z"/>
			</g>
		</g>
	</g>
	<g id="leg_left_1_">
		<path id="XMLID_1735_" d="M1623.6,670.1c4.5,14.1,8.9,28.1,13.4,42.2c-10.4,7.3-19.5,13.8-27.1,19.4
			c-16.4,11.9-22.8,16.9-30.2,24.1c-5.1,5-9,9.4-11.6,12.5c10-1.6,32.5-5.3,55.6-10.3c19.1-4.2,15.6-4.3,23.7-5.6
			c5.3-0.8,11.7-1.5,19.4-5.2c3-1.4,5.3-2.8,6.9-3.9c-0.4-3.8-0.8-7.7-1.3-11.6c-2.7-20.9-7.2-40.1-12.5-57.3
			C1647.7,672.9,1635.7,671.5,1623.6,670.1z"/>
		<path id="XMLID_1732_" class="st3" d="M1543.9,366.2c2,14.8,5.1,34.9,9.6,58.5c3.4,17.8,11.2,56.4,25.6,106.6
			c11.3,39.4,14.9,44.7,36.1,113c7,22.5,12.5,40.9,16,52.9c10.4-2.9,20.8-5.9,31.2-8.8c-2.1-11.2-5.2-27.9-8.8-48.1
			c-12.4-69.7-23.8-133.3-32-209.1c-2.9-26.5-6.4-63.5-8.8-108.2C1589.8,337.3,1566.8,351.7,1543.9,366.2z"/>
		<g id="XMLID_1700_">
			<g id="XMLID_1739_">
				<path id="XMLID_1747_" class="st5" d="M1543,370.6c12.2,90.9,39.5,178.8,67.6,265.8c8.2,25.2,16.4,50.4,24.6,75.6
					c0.6,1.8,3.5,1,2.9-0.8c-28.5-87.6-58.9-175.1-78.7-265.2c-5.5-25.2-10.1-50.6-13.6-76.2C1545.6,367.9,1542.8,368.7,1543,370.6
					L1543,370.6z"/>
			</g>
		</g>
		<g id="XMLID_1708_">
			<g id="XMLID_1750_">
				<path id="XMLID_1759_" class="st5" d="M1611.7,339.3c7.6,105,21.6,209.5,41.9,312.9c5.8,29.3,12,58.5,18.8,87.6
					c0.4,1.9,3.3,1.1,2.9-0.8c-23.8-102.3-41.4-206-52.6-310.4c-3.2-29.7-5.8-59.4-8-89.2C1614.6,337.3,1611.6,337.3,1611.7,339.3
					L1611.7,339.3z"/>
			</g>
		</g>
		<g id="XMLID_1716_">
			<g id="XMLID_1763_">
				<path id="XMLID_1767_" class="st5" d="M1635.3,712.6c-24.6,16.1-49.4,32.5-69.3,54.4c-1,1.1,0,2.8,1.5,2.5
					c23.6-4.7,47.2-9.5,70.7-14.2c5.8-1.2,11.6-2.3,17.4-3.5c4.5-0.9,9.5-1.4,13.8-3.4c5.3-2.5,8.6-8.9,4.2-13.8
					c-1.3-1.5-3.4,0.7-2.1,2.1c8.1,9.3-17.4,12.4-21.5,13.2c-9.4,1.9-18.7,3.8-28.1,5.7c-18.4,3.7-36.8,7.4-55.2,11.1
					c0.5,0.8,1,1.7,1.5,2.5c19.8-21.7,44.3-38,68.7-54C1638.4,714.1,1636.9,711.5,1635.3,712.6L1635.3,712.6z"/>
			</g>
		</g>
		<path id="XMLID_1737_" class="st6" d="M1593.3,380.4c1.3,8.8,4.8,32.9,6.1,41.9c19.5,134.4,24.8,173.4,38.5,228.5
			c2.7,10.8,6.5,25.4,11.5,42.6c4.5-1.4,9-2.7,13.5-4.1c-1.8-9.8-4.3-24.4-7.4-41.9c-13.7-77.6-20.6-116.3-24.3-140.6
			c-5.3-34.1-11.6-82.3-15.5-142C1608.2,370,1600.7,375.2,1593.3,380.4z"/>
	</g>
	<g id="skirt">
		<path id="XMLID_1682_" class="st1" d="M1467.1,186.3c-5.3,16-10.2,33.7-14,53c-10.5,52.5-10.1,99.2-6.3,135.7
			c8.3,3.7,20.2,8.4,34.9,12.3c16.6,4.3,45.8,11.7,82,5.7c13.7-2.3,35.4-7.6,59.4-21.7c-0.7-26.1-3.3-56.4-9.4-89.9
			c-6.7-36.5-16.2-68.1-25.7-94.3C1547.7,186.9,1507.4,186.6,1467.1,186.3z"/>
		<path id="XMLID_1690_" class="st4" d="M1562.3,189.5c3.3,8.8,6.3,18,9,27.7c18.4,66.5,13.5,127.8,3.7,174.2
			c8.6-2.2,18.5-5.5,29.2-10.5c6.7-3.1,12.7-6.5,17.9-9.7c0.2-14.1-0.2-29.1-1.5-44.8c-4.6-55.5-18.7-102.5-33.6-139
			C1578.8,188,1570.6,188.8,1562.3,189.5z"/>
	</g>
	<g id="arm_right_1_">
		<path id="XMLID_1666_" class="st3" d="M1486.5-28.3c-2.6,1.9-6.1,4.6-9.9,8.2c-12.2,11.5-18.5,23-20.2,26.2
			c-5.2,10-7.2,18.5-10.3,32.2c-3.6,15.6-3,21-8.6,28.3c-5.4,7.1-12.3,10.5-15.5,12c-9.4,4.6-17.8,4.7-22.8,4.7
			c-11.2,0.1-20.2-3-25.8-5.6c-1.1,1.4-2.3,2.9-3.4,4.3c-3.2-1.6-8.1-4-14.2-6.4c-12-4.8-18.1-7.2-25.3-6.4
			c-1.5,0.2-14.3,1.7-17.2,9.9c-1,2.9-0.9,7.1,1.3,9c2.6,2.2,7.6,1,12,0c3.7-0.8,5.5-1.8,7.7-0.9c1.6,0.7,2.6,2.1,3.4,3.9
			c3.1,6.4,1.1,11.4,2.1,21.9c0.5,5.7,0.9,8.7,3,10.3c0.7,0.6,3.2,2.2,14.2-0.9c4-1.1,9.7-3,16.3-6.4c-0.4,2.7-0.9,5.4-1.3,8.2
			c6.8,1.7,16.7,3.7,28.8,4.7c17.7,1.5,29.8,2.5,44.2-2.6c16-5.7,26.4-15.8,31.3-21.5c9.7-11.1,13.5-22.1,15.5-27.9
			C1505.9,36.4,1489.1-19.7,1486.5-28.3z"/>
		<path id="XMLID_1674_" class="st6" d="M1491.2-14.2c-0.8,6.8-2.2,16.8-4.3,28.8c-4.6,25.6-6.8,38.4-13.3,51.5
			c-3.7,7.4-11.8,23.9-28.8,34.8c-29.3,18.8-64.1,7.7-70.4,5.6c-10.3,5.2-20.6,10.3-30.9,15.5c2.7,0.5,6,0.8,9.9,0.4
			c8.9-0.8,15.5-4.5,18.9-6.9c0,3.1,0,6.3,0,9.4c6.8,1.6,16.7,3.5,28.8,4.3c17.1,1.1,29.7,1.9,44.2-3.4
			c25.2-9.3,37.6-30.5,39.9-34.8c7-12.6,8.3-23.5,9.9-38.6C1496.7,37.2,1497.3,14.1,1491.2-14.2z"/>
		<g id="XMLID_1599_">
			<g id="XMLID_1685_">
				<path id="XMLID_1689_" class="st5" d="M1485.7-30c-15.6,11.2-27.8,26.7-34.7,44.7c-7.8,20.5-7.7,43.5-19.2,62.6
					c-1,1.7,1.6,3.2,2.6,1.5c10.5-17.5,11.5-38.1,17.4-57.2c6.1-19.7,18.6-36.9,35.4-49C1488.8-28.5,1487.3-31.1,1485.7-30
					L1485.7-30z"/>
			</g>
		</g>
		<g id="XMLID_1600_">
			<g id="XMLID_1694_">
				<path id="XMLID_1698_" class="st5" d="M1372.2,78.2c0.8,14.5,0.4,29-1.2,43.4c-0.2,1.9,2.8,1.9,3,0c1.7-14.4,2.1-28.9,1.2-43.4
					C1375.1,76.2,1372.1,76.2,1372.2,78.2L1372.2,78.2z"/>
			</g>
		</g>
		<g id="XMLID_1601_">
			<g id="XMLID_1702_">
				<path id="XMLID_1707_" class="st5" d="M1372.4,79.6c14.4,4.6,30.5,7.8,45.3,2.9c11.2-3.7,20.8-11.6,24.9-22.9
					c0.7-1.8-2.2-2.6-2.9-0.8c-4.1,11.2-14.3,18.7-25.6,21.6c-13.6,3.5-27.8,0.5-40.8-3.7C1371.4,76.1,1370.6,79,1372.4,79.6
					L1372.4,79.6z"/>
			</g>
		</g>
		<g id="XMLID_1602_">
			<g id="XMLID_1710_">
				<path id="XMLID_1715_" class="st5" d="M1372.1,124.8c23.1,6.1,50.6,9.7,74,2.8c21.2-6.3,34.7-24.4,44.8-43
					c0.9-1.7-1.7-3.2-2.6-1.5c-10.1,18.5-23.4,36.4-44.7,42.1c-22.5,6-48.5,2.6-70.7-3.2C1371.1,121.4,1370.3,124.3,1372.1,124.8
					L1372.1,124.8z"/>
			</g>
		</g>
		<g id="XMLID_1653_">
			<g id="XMLID_1718_">
				<path id="XMLID_1723_" class="st5" d="M1371.8,79.7c-6.1,0.1-12.2-4.1-17.7-6.6c-4.2-1.9-8.6-3.7-13.1-4.7
					c-8-1.8-16.6-1.2-23.2,4.1c-4.1,3.3-9.2,10.9-4.9,15.9c2,2.2,5.2,3.2,8.1,3.3c3.7,0.1,13.5-5.9,15.3-1.3c0.7,1.8,3.6,1,2.9-0.8
					c-1.8-4.7-6.4-4.7-10.6-3.1c-4.1,1.5-14.6,5.4-14.1-3.9c0.2-4,4.9-7.9,8.1-9.7c8.9-4.8,19.7-1.7,28.3,2.1
					c6.5,2.9,13.6,7.9,20.9,7.8C1373.8,82.7,1373.8,79.7,1371.8,79.7L1371.8,79.7z"/>
			</g>
		</g>
		<g id="XMLID_1665_">
			<g id="XMLID_1726_">
				<path id="XMLID_1731_" class="st5" d="M1344,124.1c9.9,2,19.8-0.1,27.9-6.2c1.5-1.1,0-3.7-1.5-2.6c-7.5,5.6-16.4,7.7-25.6,5.9
					C1342.9,120.8,1342.1,123.7,1344,124.1L1344,124.1z"/>
			</g>
		</g>
	</g>
	<g id="torso_1_">
		<path id="XMLID_1612_" class="st3" d="M1524.8-47.8c-5.2,0-10.3,0-15.5,0c0,3.1,0,6.2,0,9.3c-3.8,0.6-9.1,1.8-15,4.6
			c-4.7,2.3-8.3,5-10.8,7.2c-3.5,18.8-7.1,33.9-9.8,44.4c-4,15.3-6.2,21.7-6.7,33.5c-0.4,8.9,0.7,10,1,27.3
			c0.1,7.5,0.3,16.8-0.5,27.9c-0.6,8-1.4,13.9-4.1,30.4c-4.8,29.2-5.5,30.9-6.7,39.2c-1.7,11.8-3.1,28.8-1.5,50.1
			c2.4,1.6,6.3,4.1,11.4,6.7c9.3,4.9,14,6,21.7,9.8c4.2,2.1,10.2,5.5,17,10.8c2.1-15.5,4.1-31,6.2-46.4c2.8,16.5,5.5,33,8.3,49.5
			c4.6,0.4,11.4,0.6,19.6,0c10.7-0.8,31-2.7,49.5-16c9.6-6.9,13.9-13.4,15-15c4.7-7.2,6.5-14.2,7.2-18.6c-1.6-9.1-3.5-21.8-5.2-37.2
			c-2-19.2-2.9-36.7-3.1-65.5c-0.2-23.7,0-54.6,1.5-91.3c3.3-10.7,6.5-21.3,9.8-32c-6.6-4.3-14.5-8.8-23.7-12.9
			c-12-5.4-23.2-8.7-32.5-10.8c0.2-3.8,0.3-7.6,0.5-11.4c-3.4,2.5-11.3,7.5-22.2,7.7C1531.6-46.2,1527.8-46.9,1524.8-47.8z"/>
		<path id="XMLID_1620_" class="st7" d="M1603.8,29.1c-2.3,7.4-5.7,19.3-9.3,34.1c-13.2,54.7-11,79.3-19.6,113.5
			c-4.9,19.3-14.6,47.5-36.6,80c13.5-1.3,24-4.6,31-7.2c12.1-4.6,24.2-9.2,33-21.2c6.2-8.3,8.4-16.9,9.3-22.2
			c-3-17.2-5.5-35.4-7.2-54.7C1600.1,106.1,1600.8,65,1603.8,29.1z"/>
		<path id="XMLID_1628_" class="st8" d="M1534.6-43.2c-1.1,0.4,0.3,4.3-1.5,10.3c-1.1,3.4-2.8,6-4.1,7.7c5.9,2.4,11.7,2.2,13.9-0.5
			C1547.1-30.8,1536.9-44,1534.6-43.2z"/>
		<path id="XMLID_1636_" class="st8" d="M1508.8,205c-2,6-3.9,12.6-5.7,19.6c-2.1,8.4-3.6,16.4-4.6,23.7c2.8,1.5,5.5,3.1,8.3,4.6
			C1507.5,237,1508.2,221,1508.8,205z"/>
		<g id="XMLID_1353_">
			<g id="XMLID_1381_">
				<path id="XMLID_1386_" class="st5" d="M1523.6-49c-4.9,0-9.7,0.3-14.6,0.9c-0.7,0.1-1.6,0.6-1.5,1.5c0.5,4.5,1,9,1.5,13.6
					c0.2,1.9,3.2,1.9,3,0c-0.5-4.5-1-9-1.5-13.6c-0.5,0.5-1,1-1.5,1.5c4.8-0.6,9.7-1,14.6-0.9C1525.6-46,1525.6-49,1523.6-49
					L1523.6-49z"/>
			</g>
		</g>
		<g id="XMLID_1354_">
			<g id="XMLID_1393_">
				<path id="XMLID_1397_" class="st5" d="M1509.2-44.9c3.8,3.3,6.1,7.6,6.9,12.6c0.3,1.9,3.2,1.1,2.9-0.8
					c-0.9-5.4-3.6-10.3-7.7-13.9C1509.9-48.3,1507.8-46.2,1509.2-44.9L1509.2-44.9z"/>
			</g>
		</g>
		<g id="XMLID_1362_">
			<g id="XMLID_1401_">
				<path id="XMLID_1405_" class="st5" d="M1484.6-25.5c7.6-5.7,16-9.9,25.2-12.4c1.9-0.5,1.1-3.4-0.8-2.9
					c-9.4,2.6-18.1,6.9-25.9,12.7C1481.5-26.9,1483-24.3,1484.6-25.5L1484.6-25.5z"/>
			</g>
		</g>
		<g id="XMLID_1363_">
			<g id="XMLID_1409_">
				<path id="XMLID_1414_" class="st5" d="M1563.8-41.7c17.8,4.9,34.3,13,49,24.2c1.5,1.2,3-1.4,1.5-2.6
					c-14.9-11.3-31.7-19.5-49.7-24.5C1562.7-45.1,1561.9-42.2,1563.8-41.7L1563.8-41.7z"/>
			</g>
		</g>
		<g id="XMLID_1372_">
			<g id="XMLID_1417_">
				<path id="XMLID_1422_" class="st5" d="M1476.7,7.9c-20,43-5.4,90.8-7.7,136.1c-0.1,1.9,2.9,1.9,3,0
					c2.2-44.6-12.4-92.2,7.3-134.6C1480.1,7.7,1477.5,6.2,1476.7,7.9L1476.7,7.9z"/>
			</g>
		</g>
		<g id="XMLID_1373_">
			<g id="XMLID_1425_">
				<path id="XMLID_1430_" class="st5" d="M1466.8,94.3c0.9,22.6-5.6,44.4-9.4,66.5c-3.6,21.5-4.4,43.3-3.6,65.1
					c0.1,1.9,3.1,1.9,3,0c-0.8-22.8,0-45.6,4.1-68c3.9-21.1,9.7-41.9,8.8-63.5C1469.7,92.4,1466.7,92.4,1466.8,94.3L1466.8,94.3z"/>
			</g>
		</g>
		<g id="XMLID_1374_">
			<g id="XMLID_1433_">
				<path id="XMLID_1438_" class="st5" d="M1454.7,227.2c7.6,5,15.7,9.3,24.1,12.8c9.6,3.9,17.6,8.2,25.9,14.5
					c1.5,1.2,3-1.4,1.5-2.6c-7.3-5.6-14.6-10-23.2-13.4c-9.4-3.7-18.4-8.3-26.9-13.8C1454.6,223.5,1453.1,226.1,1454.7,227.2
					L1454.7,227.2z"/>
			</g>
		</g>
		<g id="XMLID_1377_">
			<g id="XMLID_1442_">
				<path id="XMLID_1446_" class="st5" d="M1507.8,253.2c1.6-16.7,3.1-33.4,4.7-50c0.2-1.9-2.8-1.9-3,0c-1.6,16.7-3.1,33.4-4.7,50
					C1504.6,255.1,1507.6,255.1,1507.8,253.2L1507.8,253.2z"/>
			</g>
		</g>
		<g id="XMLID_1379_">
			<g id="XMLID_1450_">
				<path id="XMLID_1454_" class="st5" d="M1509.8,203.9c1.6,17.9,4.4,35.6,8.2,53.2c0.4,1.9,3.3,1.1,2.9-0.8
					c-3.8-17.3-6.5-34.8-8.1-52.4C1512.6,202,1509.6,201.9,1509.8,203.9L1509.8,203.9z"/>
			</g>
		</g>
		<g id="XMLID_1387_">
			<g id="XMLID_1458_">
				<path id="XMLID_1463_" class="st5" d="M1520.3,258.9c17.9,0.7,35.7-2.4,52.3-9.1c13.3-5.4,28.6-13.1,33.9-27.4
					c0.7-1.8-2.2-2.6-2.9-0.8c-5.4,14.6-23.1,22.3-36.7,27.2c-15,5.4-30.8,7.7-46.6,7.2C1518.4,255.9,1518.4,258.9,1520.3,258.9
					L1520.3,258.9z"/>
			</g>
		</g>
		<g id="XMLID_1398_">
			<g id="XMLID_1466_">
				<path id="XMLID_1471_" class="st5" d="M1602.6,28c-3.8,60-1.7,120.2,6.1,179.7c0.3,1.9,3.3,1.9,3,0
					c-7.9-59.6-10-119.8-6.1-179.7C1605.7,26.1,1602.7,26.1,1602.6,28L1602.6,28z"/>
			</g>
		</g>
		<g id="XMLID_1407_">
			<g id="XMLID_1474_">
				<path id="XMLID_1479_" class="st5" d="M1609,205.4c-1.2,8.2-4,15.8-8.5,22.8c-1,1.6,1.6,3.1,2.6,1.5c4.6-7.2,7.6-15,8.8-23.5
					C1612.2,204.3,1609.3,203.5,1609,205.4L1609,205.4z"/>
			</g>
		</g>
		<g id="XMLID_1415_">
			<g id="XMLID_1482_">
				<path id="XMLID_1487_" class="st5" d="M1517.1-28.1c2.5,3,6.2,4.7,10.1,4.8c1.9,0,1.9-3,0-3c-3.2-0.1-6-1.5-8-3.9
					C1517.9-31.7,1515.8-29.6,1517.1-28.1L1517.1-28.1z"/>
			</g>
		</g>
		<g id="XMLID_1423_">
			<g id="XMLID_1492_">
				<path id="XMLID_1496_" class="st5" d="M1526-18.3c-19.3,65.5-3.3,134.4-13.1,201.1c-0.3,1.9,2.6,2.7,2.9,0.8
					c9.8-66.7-6.1-135.6,13.1-201.1C1529.5-19.4,1526.6-20.1,1526-18.3L1526-18.3z"/>
			</g>
		</g>
		<g id="XMLID_1431_">
			<g id="XMLID_1500_">
				<path id="XMLID_1504_" class="st5" d="M1518.5-9.2C1518.4-9.3,1518.4-9.3,1518.5-9.2c-0.1,0-0.1,0,0.1,0.1
					c-0.1-0.1-0.1-0.1,0,0.1C1518.6-9.1,1518.6-9.2,1518.5-9.2C1518.6-9,1518.7-9,1518.5-9.2c0.1-0.1,0.1-0.1,0.1,0.1
					C1518.6-9.2,1518.6-9.2,1518.5-9.2C1518.6-9.1,1518.6-9,1518.5-9.2C1518.6-9.4,1518.6-9.3,1518.5-9.2c0.1-0.1,0.1,0,0,0.1
					c0.1-0.1,0.1-0.1-0.1,0c0.1-0.1,0.1-0.1-0.1,0c-0.1,0-0.2,0-0.4,0c0.2,0,0.1,0,0,0c0.1,0.1,0.1,0.1,0,0c0.1,0.1,0.1,0.1,0.2,0.2
					c-0.1-0.2-0.1-0.2,0,0c-0.1-0.2-0.1-0.2,0,0c0,0.2,0,0.1,0-0.1c0,0.2,0,0.1,0-0.1c0-0.1,0.1-0.2,0.2-0.3c-0.1,0.1-0.1,0.1,0,0
					s0.2-0.1,0.4-0.1c-0.2,0-0.1,0,0.1,0c-0.2-0.1-0.1,0,0.1,0c-0.1,0-0.1-0.1-0.2-0.1c0.2,0.1,0.2,0.1,0.1,0c0.1,0.2,0.1,0.2,0,0.1
					c-0.1-0.1-0.1-0.1,0,0.1c0-0.2,0-0.1,0,0.1s-0.1,0.3,0,0.1c-0.1,0.2-0.1,0.2,0,0.1c0.5-0.7,0.1-1.7-0.5-2.1
					c-0.8-0.4-1.6-0.1-2.1,0.5c-1.2,1.7,0.4,4,2.3,4.1c0.9,0.1,1.8-0.4,2.3-1.2c0.5-0.9,0.4-2-0.1-2.8c-1-1.7-3.6-1.9-4.6-0.1
					c-0.9,1.6-0.1,3.9,1.8,4.3c0.8,0.2,1.6-0.3,1.8-1C1519.8-8.1,1519.3-9,1518.5-9.2L1518.5-9.2z"/>
			</g>
		</g>
		<g id="XMLID_1439_">
			<g id="XMLID_1508_">
				<path id="XMLID_1513_" class="st5" d="M1514.4,23.4c0-0.6-0.1-1.2-0.1-1.8c-0.4,0.5-0.7,1-1.1,1.4c0.2,0,0.2-0.1,0.1,0
					c-0.1,0-0.1,0,0.1,0c-0.3-0.1,0.2,0-0.1,0c0,0,0.1,0,0.1,0.1c-0.1-0.1-0.1-0.1,0,0v0.1c-0.1-0.1,0-0.1,0-0.2c0,0.2-0.1,0.2,0,0
					c-0.1,0.1-0.1,0.1-0.2,0.2c0.1,0,0.3,0,0-0.1c0.4,0.1,0.7,0.3,1.1,0.4c0,0-0.1-0.2-0.1-0.3c0-0.1,0-0.2,0-0.3
					c0.5-1.9-2.4-2.7-2.9-0.8c-0.3,1.2-0.1,2.7,0.9,3.6c1.1,1.1,3.1,0.1,3.8-1c1.5-2.3-1-5.3-3.5-4.4c-0.6,0.2-1.2,0.8-1.1,1.4
					c0,0.6,0.1,1.2,0.1,1.8c0.1,0.8,0.6,1.5,1.5,1.5C1513.6,24.9,1514.4,24.2,1514.4,23.4L1514.4,23.4z"/>
			</g>
		</g>
		<g id="XMLID_1447_">
			<g id="XMLID_1516_">
				<path id="XMLID_1521_" class="st5" d="M1512.4,52.3c-0.2-0.3,0,0.1-0.1-0.2c0,0.1,0,0.1,0-0.1c0,0.1,0,0.1,0,0
					c0,0,0-0.1,0.1-0.1c-0.1,0.1,0,0,0.1-0.1l-0.1,0.1c-0.4-0.1-0.8-0.1-1.2-0.2c-0.3-0.2,0.1,0.2-0.1-0.1c0.1,0.1,0.1,0.1,0,0
					c0-0.1,0-0.1,0,0.1c0-0.2,0-0.2,0-0.1s0,0.1,0,0.2c0-0.3,0,0.1,0,0.1c-0.1,0.3,0.1-0.1-0.1,0.1s0.2-0.1-0.1,0.1
					c0.2-0.1,0.1,0,0,0c-0.2,0,0.5-0.1,0.1,0c0.5,0.5,1,1,1.5,1.5c0-0.6-0.1-1.2-0.1-1.8c0-0.8-0.7-1.5-1.5-1.5
					c-0.8,0-1.5,0.7-1.5,1.5c0,0.6,0.1,1.2,0.1,1.8c0,0.8,0.7,1.5,1.5,1.5c2.4-0.1,4-3,2.7-5.1c-0.4-0.6-1-1.2-1.7-1.2
					c-0.7,0-1.4,0.5-1.8,1c-0.9,1-1.1,2.6-0.4,3.8C1510.8,55.5,1513.4,53.9,1512.4,52.3L1512.4,52.3z"/>
			</g>
		</g>
		<g id="XMLID_1456_">
			<g id="XMLID_1524_">
				<path id="XMLID_1529_" class="st5" d="M1511.8,78.6c0.1,0.2,0.2,0.3,0.2,0.5c0-0.2,0,0,0,0.1c0.1-0.3-0.1,0.3,0,0
					c0.1-0.2-0.1,0.2,0,0c0-0.1,0.3-0.2,0,0c0.2-0.1-0.2,0.1,0,0c0.1,0-0.3,0-0.4,0c0.3,0-0.2-0.2,0,0c-0.2-0.2-0.4-0.4-0.5-0.5
					c0.2,0.4,0.2,0.9,0,1.5c0.3-0.3,0.7-0.7,1-1c-0.2,0.1-0.2,0.1,0,0c0.2,0,0.2,0,0,0h0.1c0.1,0.1,0.1,0.1,0,0
					c0.1,0.1,0.1,0.1,0,0.1c-0.1-0.1,0-0.1,0,0.1s0,0.2,0,0c0,0.2,0,0.2,0,0c0.3-0.8-0.3-1.6-1-1.8c-0.9-0.2-1.5,0.3-1.8,1
					c-0.6,1.5,0.6,3.2,2.1,3.5c0.4,0.1,0.9,0.1,1.3-0.1c0.7-0.2,1-0.7,1.1-1.4c0.2-0.9,0.2-1.8-0.1-2.7c-0.3-0.9-0.9-1.6-1.9-1.7
					c-0.8-0.1-1.5,0.2-2.1,0.7c-1.2,1-1.3,2.6-0.3,3.8c0.5,0.6,1.6,0.5,2.1,0C1512.4,80.1,1512.4,79.2,1511.8,78.6L1511.8,78.6z"/>
			</g>
		</g>
		<g id="XMLID_1464_">
			<g id="XMLID_1532_">
				<path id="XMLID_1537_" class="st5" d="M1511.9,102.1C1511.8,102,1511.8,101.9,1511.9,102.1c0,0,0,0-0.1-0.2c0,0.2,0.1-0.2,0,0.1
					c-0.4,0.2-0.9,0.5-1.3,0.7c0.4,0-0.2,0,0.1,0c-0.2-0.1-0.2-0.1-0.1,0c0.1,0.1,0.1,0-0.1-0.1c0.2,0.3-0.1-0.3,0.1,0.1
					c0.1,0.1,0.1,0.4,0,0.1c0,0.1,0.1,0.4,0,0.1c0,0.1,0,0.5,0,0.1c0,0.1-0.2,0.3,0,0.1c0-0.1,0.1-0.1,0.1-0.2c-0.1,0.1-0.1,0.1,0,0
					c0.3-0.1,0.5-0.1,0.8-0.2c-0.3,0,0.2,0.1,0.2,0.1l0.1,0.1c-0.1-0.1-0.1-0.1-0.1-0.1c0.1,0.2,0.1,0.3,0,0.5
					c0.4-0.7,0.2-1.6-0.5-2.1c-0.7-0.4-1.7-0.2-2.1,0.5c-0.6,1.2-0.3,2.6,0.8,3.3c0.6,0.4,1.4,0.6,2.1,0.4c0.6-0.2,1-0.8,1.2-1.3
					c0.8-2-0.5-4.5-2.8-4.5c-0.5,0-1.1,0.3-1.3,0.7c-0.6,1.3-0.5,2.7,0.6,3.7C1511.2,105.6,1513.3,103.4,1511.9,102.1L1511.9,102.1z
					"/>
			</g>
		</g>
		<g id="XMLID_1472_">
			<g id="XMLID_1541_">
				<path id="XMLID_1545_" class="st5" d="M1511.3,126c0.2,0.1,0.2,0.1,0.3,0.2c0,0,0-0.1-0.1-0.1c0.1,0.1,0.1,0.2,0,0.1
					c0-0.1,0-0.1,0,0s0,0.1,0-0.1c0,0.2,0,0.3-0.2,0.4c-0.5,0.1-1,0.3-1.5,0.4c0.3,0.1-0.2-0.1,0,0c-0.2-0.1-0.2-0.2-0.1,0l-0.1-0.1
					c0,0.1,0.1,0.1,0.1,0.2c0-0.1,0-0.1-0.1-0.2c0,0.1,0,0.1,0.1,0.2c0-0.2,0-0.3,0-0.1c0,0,0,0.4,0,0.2c0-0.1,0-0.1,0,0s0,0.1,0,0
					c0.1-0.1,0-0.1,0,0c0.1-0.2,0.2-0.2,0.1-0.1c-0.1,0.1,0,0.1,0.1-0.1c-0.1,0.1-0.1,0.1,0.1,0c0.6,0.2,1.1,0.5,1.7,0.7
					c0,0.2,0,0.1,0,0c0,0.1,0,0.2,0,0.2c0-0.2,0.1-0.2,0,0c0,0.1-0.1,0.1-0.2,0.2c0.7-0.5,1-1.3,0.5-2.1c-0.4-0.7-1.4-1-2.1-0.5
					c-1.2,0.8-1.7,2.4-0.9,3.7c0.3,0.5,1.1,0.9,1.7,0.7c1.2-0.4,2-1.6,1.9-2.9s-0.8-2.5-2.1-2.8c-0.5-0.1-1.1,0-1.5,0.4
					c-1.3,1.5-0.7,3.8,1.2,4.5c0.8,0.3,1.6-0.3,1.8-1C1512.5,127,1512,126.3,1511.3,126L1511.3,126z"/>
			</g>
		</g>
		<g id="XMLID_1480_">
			<g id="XMLID_1549_">
				<path id="XMLID_1553_" class="st5" d="M1509.6,154.8c0,0.2,0,0.3-0.1,0.5l-0.1,0.1c0.1-0.1,0.1-0.1,0,0s-0.3,0.1-0.1,0.1
					c-0.2,0-0.8-0.2-0.5,0c-0.2-0.3-0.5-0.6-0.7-0.9c0,0.1,0.1,0.2,0.1,0.3c0,0.1,0,0.2,0,0c0,0.1,0,0.2,0,0.3c0-0.2,0,0-0.1,0.1
					c-0.1,0.2,0.1-0.2,0,0.1c0,0-0.2,0.2-0.1,0.2c-0.1,0.1-0.2,0.1-0.3,0.2c0.7,0.2,1.4,0.4,2.1,0.5c-0.1-0.1-0.2-0.3-0.3-0.5
					c-0.1-0.2,0-0.2-0.1,0c-0.1,0.2-0.1,0.5-0.3,0.6c-0.5,0.4-1.2-0.2-1.4-0.7c0.2,0.8,1.1,1.3,1.8,1c0.8-0.2,1.3-1.1,1-1.8
					c-0.4-1.4-2.1-1.8-3.3-1c-1.3,1-0.9,2.6-0.1,3.8c0.5,0.7,1.3,1,2.1,0.5c0.9-0.5,1.5-1.3,1.8-2.3c0.3-1,0.2-2.4-0.6-3
					c-1.8-1.5-4.5,0.6-3.9,2.7C1507.2,157.5,1510.1,156.7,1509.6,154.8L1509.6,154.8z"/>
			</g>
		</g>
		<g id="XMLID_1488_">
			<g id="XMLID_1557_">
				<path id="XMLID_1562_" class="st5" d="M1507.7,185.7c0.2-0.5,0.4-1,0.7-1.5c-0.3,0.2-0.6,0.5-0.9,0.7c-0.2,0.1-0.3,0-0.5-0.1
					c-0.1-0.1-0.1-0.1,0,0c-0.1-0.2-0.2-0.4-0.1-0.7c0.1-0.2,0.2-0.3,0.4-0.3c-0.2,0-0.1,0,0.1,0c0.1,0,0.2,0,0.3,0.1
					c-0.7-0.4-1.6-0.2-2.1,0.5c-0.4,0.7-0.2,1.7,0.5,2.1c1.9,1,4.4-0.8,3.5-2.9c-0.4-0.9-1.3-1.6-2.3-1.6c-0.7,0-1.3,0.3-1.6,1
					c-0.2,0.4-0.4,0.8-0.5,1.3c-0.3,0.7-0.2,1.6,0.5,2.1C1506.3,186.6,1507.4,186.4,1507.7,185.7L1507.7,185.7z"/>
			</g>
		</g>
		<g id="XMLID_1497_">
			<g id="XMLID_1565_">
				<path id="XMLID_1570_" class="st5" d="M1547.7-52.2c-3.4,1.1-6.7,2.2-10.1,3.3c-1.6,0.5-4.2,0.9-5.1,2.5c-0.8,1.4-0.1,2.6,0.2,4
					c0.9,4-0.1,7.9-2.3,11.4c-1.1,1.6,1.5,3.1,2.6,1.5c2.4-3.6,3.5-7.8,2.9-12.2c0-0.2-0.8-2.5-0.6-2.8c0.5-1.1,3.6-1.7,4.6-2
					c2.9-1,5.7-1.9,8.6-2.9C1550.3-50,1549.5-52.9,1547.7-52.2L1547.7-52.2z"/>
			</g>
		</g>
		<g id="XMLID_1506_">
			<g id="XMLID_1573_">
				<path id="XMLID_1578_" class="st5" d="M1533.9-44.1c3,3.3,5,7.1,5.8,11.5c0.4,1.9,3.3,1.1,2.9-0.8c-0.9-4.9-3.2-9.2-6.6-12.8
					C1534.7-47.7,1532.6-45.5,1533.9-44.1L1533.9-44.1z"/>
			</g>
		</g>
		<g id="XMLID_1514_">
			<g id="XMLID_1581_">
				<path id="XMLID_1586_" class="st5" d="M1546-48c4.1-1.9,8.3-3.2,12.7-4c-0.6-0.5-1.3-1-1.9-1.4c0.4,4-0.2,7.9-1.9,11.5
					c-0.8,1.7,1.8,3.3,2.6,1.5c2-4.1,2.8-8.5,2.3-13c-0.1-1-0.9-1.6-1.9-1.4c-4.7,0.8-9.1,2.3-13.4,4.3
					C1542.7-49.8,1544.2-47.2,1546-48L1546-48z"/>
			</g>
		</g>
		<g id="XMLID_1522_">
			<g id="XMLID_1590_">
				<path id="XMLID_1594_" class="st5" d="M1558.7-42.5c2.1,0.5,4.2,0.7,6.3,0.6c1.9,0,1.9-3,0-3s-3.7-0.1-5.5-0.5
					C1557.6-45.9,1556.8-43,1558.7-42.5L1558.7-42.5z"/>
			</g>
		</g>
	</g>
	<g id="arm_left_1_">
		<path id="XMLID_1644_" class="st3" d="M1614.1-18.9c4.1,0,6.3,8.3,11.4,20.6c10.9,26.7,16.3,40,18.6,48.5c4,15,8.2,36.3,8.3,62.4
			c-3.1,6.7-7.8,15.8-15,25.8c-6.4,8.9-18.1,24.9-39.2,37.7c-6.7,4.1-16.7,9.2-29.9,12.9c-0.7-5-1.4-10-2.1-15
			c-2.2,1.1-5.4,2.9-9.3,5.2c-6.2,3.7-7.6,5-10.3,6.2c-3.5,1.5-8.9,2.8-17,1c-4.1-11.9-7.5-21.7-10.3-29.4
			c-0.9-2.6-2.7-7.3-0.5-11.4c1.2-2.2,3.2-3.4,4.6-4.1c-1.7-3.2-2.3-5.9-2.6-7.7c-0.3-2.3-0.5-3.9,0.5-5.2c1.7-2.1,5.3-1.6,5.7-1.5
			c-0.7-4.7-1.4-9.6-2.1-14.4c-1.8-13.7-3.2-26.9-4.1-39.7c4.3-2.6,8.6-5.2,12.9-7.7c21.3-12.7,42.5-24.7,63.5-36.1
			c0.1-2.6,0.4-6.2,1-10.3c0.8-5.8,1.9-10.5,2.6-12.9C1601.2,3.8,1607.3-18.9,1614.1-18.9z"/>
		<path id="XMLID_1530_" class="st9" d="M1612.6-19.9c3.7,8.8,8.3,21.3,12.4,36.6c6.3,23.9,12.6,46.8,8.8,75.3
			c-2,14.7-4.3,32.2-17.5,49c-16.6,21.1-39.7,27.5-48.5,29.4c-3.2-1.6-8.6-3.6-15.5-3.6c-14.4,0-24.1,9.1-26.3,11.4
			c1.2,2.8,2.4,5.5,3.6,8.3c6.6,0.8,11.3-0.3,14.4-1.5c5.7-2.2,8.3-5.6,16.5-8.8c2.8-1.1,5.1-1.7,6.7-2.1c0.2,4.1,0.3,8.3,0.5,12.4
			c11-1.4,19.2-4.4,24.3-6.7c22.4-10.1,35.2-28.4,48.5-47.5c5.7-8.1,9.8-15.1,12.4-19.6c-0.1-8.6-0.7-19.9-2.6-33
			c-3.7-26-10.3-44.8-11.9-49C1633.5,17.3,1625.7-0.6,1612.6-19.9z"/>
		<path id="XMLID_1580_" class="st6" d="M1589.3,33.7c0.9,7.6,1.4,16.1,1,25.3c-1.4,33.6-13.7,59.8-23.2,75.9
			c5.3-3.3,11.1-7.4,17-12.4c10.7-9.1,18.6-18.4,24.3-26.3c0.7-10.3,0.2-19-0.5-25.3c-1.2-11.5-3.5-20.6-5.7-28.9
			c-1.5-6-3-10.9-4.1-14.4C1595.2,29.6,1592.3,31.7,1589.3,33.7z"/>
		<path id="XMLID_1598_" class="st6" d="M1648.7,71.9c-1.9,0-1.7,17.2-9.8,41.3c-2.8,8.2-6.7,19.6-14.4,31.5
			c-5.5,8.4-16.9,23-38.2,35.1c7.6-2.8,16.6-7,25.8-13.4c24.7-17.4,36-40.7,40.8-52.6C1651.5,79.3,1649.9,71.9,1648.7,71.9z"/>
		<g id="XMLID_1538_">
			<g id="XMLID_1606_">
				<path id="XMLID_1611_" class="st5" d="M1601.6,37.6c3.5,19.6,6.8,39.3,4.6,59.3c-0.2,1.9,2.8,1.9,3,0
					c2.3-20.2-1.1-40.2-4.7-60.1C1604.2,34.9,1601.3,35.7,1601.6,37.6L1601.6,37.6z"/>
			</g>
		</g>
		<g id="XMLID_1546_">
			<g id="XMLID_1614_">
				<path id="XMLID_1619_" class="st5" d="M1606.8,95.5c-6.6,10-14.5,19-23.7,26.8c-4.6,3.9-9.5,7.4-14.7,10.6
					c-3.5,2.2-8.4,3.6-9.8,7.8c-0.6,1.8,2.3,2.6,2.9,0.8c0.8-2.7,4.8-3.9,7-5.2c2.5-1.5,5-3.1,7.4-4.8c4.3-3,8.4-6.2,12.3-9.7
					c8.1-7.3,15.1-15.6,21.1-24.7C1610.4,95.4,1607.8,93.9,1606.8,95.5L1606.8,95.5z"/>
			</g>
		</g>
		<g id="XMLID_1555_">
			<g id="XMLID_1622_">
				<path id="XMLID_1627_" class="st5" d="M1558.5,141.9c4.2,14.7,6.7,29.8,7.6,45c0.1,1.9,3.1,1.9,3,0c-0.9-15.5-3.5-30.9-7.7-45.8
					C1560.9,139.3,1558,140.1,1558.5,141.9L1558.5,141.9z"/>
			</g>
		</g>
		<g id="XMLID_1563_">
			<g id="XMLID_1630_">
				<path id="XMLID_1635_" class="st5" d="M1612-19.2c25.4,38.9,38.9,84.8,38.5,131.3c0,1.9,3,1.9,3,0c0.4-47-13.2-93.5-38.9-132.8
					C1613.5-22.3,1610.9-20.8,1612-19.2L1612-19.2z"/>
			</g>
		</g>
		<g id="XMLID_1571_">
			<g id="XMLID_1639_">
				<path id="XMLID_1643_" class="st5" d="M1568,189.2c41.2-7.2,67.9-42.1,86.7-76.6c0.9-1.7-1.7-3.2-2.6-1.5
					c-18.5,33.9-44.5,68.2-84.9,75.2C1565.3,186.6,1566.1,189.5,1568,189.2L1568,189.2z"/>
			</g>
		</g>
		<g id="XMLID_1579_">
			<g id="XMLID_1647_">
				<path id="XMLID_1651_" class="st5" d="M1557.8,141c-5.8-3.4-11.6-7.1-17.6-10.2c-4.5-2.4-10.4-5.3-15.7-4.9
					c-8.8,0.7-6.1,12.5-1.7,16.6c1.4,1.3,3.5-0.8,2.1-2.1c-2.8-2.6-6.1-10.6,0.2-11.5c3.7-0.5,8.8,2.2,12,3.7
					c6.6,3.2,12.9,7.3,19.2,11C1558,144.6,1559.5,142,1557.8,141L1557.8,141z"/>
			</g>
		</g>
		<g id="XMLID_1587_">
			<g id="XMLID_1655_">
				<path id="XMLID_1664_" class="st5" d="M1523.5,140.1c-6.3,2.2-7.4,8.6-6.1,14.5c1.1,5.1,3,10.1,4.5,15.2
					c1.5,4.8,2.5,10.1,4.5,14.7c2.8,6.2,11,3.9,16.3,2.7c3.7-0.9,7.8-2,10.8-4.4c3.7-3,5.7-6.1,10.8-7.3c1.9-0.4,1.1-3.3-0.8-2.9
					c-4.8,1.1-7.4,3.5-10.8,6.9c-2.5,2.4-5.7,3.5-8.9,4.4c-2.6,0.7-8.1,2.5-10.7,1.7c-4.7-1.6-5.3-6.7-6.5-10.8
					c-0.9-2.9-1.7-5.7-2.6-8.6c-1.8-5.9-8.6-20.1,0.4-23.1C1526.1,142.4,1525.3,139.5,1523.5,140.1L1523.5,140.1z"/>
			</g>
		</g>
		<g id="XMLID_1595_">
			<g id="XMLID_1667_">
				<path id="XMLID_1672_" class="st5" d="M1556.3,141.8c3.2,10.9,5.5,21.9,7.1,33.2c0.3,1.9,3.2,1.1,2.9-0.8
					c-1.6-11.2-4-22.3-7.1-33.2C1558.7,139.2,1555.8,140,1556.3,141.8L1556.3,141.8z"/>
			</g>
		</g>
		<g id="XMLID_1604_">
			<g id="XMLID_1675_">
				<path id="XMLID_1680_" class="st5" d="M1529,126c-2.7-11.8-4.6-23.8-5.6-35.9c-0.2-2.9-0.4-5.8-0.6-8.7c-0.1-2.4-1-6.4,0.5-8.5
					c1.5-2,5.8-3.9,7.9-5.2c2.4-1.5,4.8-3.1,7.2-4.6c19.6-12.2,40-23.1,60.3-34c-0.7-0.3-1.5-0.6-2.2-0.9c3.9,14,7.1,28.1,9.6,42.5
					c0.3,1.9,3.2,1.1,2.9-0.8c-2.5-14.3-5.7-28.5-9.6-42.5c-0.3-1-1.4-1.4-2.2-0.9c-22.3,11.9-44.6,23.9-65.9,37.5
					c-2.7,1.7-5.3,3.4-7.9,5.2c-1.2,0.8-3.2,1.6-3.8,3c-0.9,1.9,0.1,6,0.2,8.1c0.1,2.9,0.3,5.8,0.6,8.7c1,12.7,3,25.2,5.8,37.6
					C1526.6,128.7,1529.5,127.9,1529,126L1529,126z"/>
			</g>
		</g>
	</g>
	<g id="head_1_">
		<path id="XMLID_1328_" class="st3" d="M1491.3-176.4c-8.2,4.9-13.6,8.3-17.7,15.1c-5.6,9.2-5.2,18.8-4.8,23.3
			c-3.6,9.8-7.2,19.6-10.8,29.4c4,0,8.1,0,12.1,0c0,4,0.4,10.3,3,17.3c1.6,4.3,6.5,16.7,19.9,23.8c11.7,6.1,22.9,4.6,26.8,3.9
			c1,5.8,2,11.5,3,17.3c4.5-0.2,11-1.1,18.2-4.3c21.3-9.5,28.9-31.2,31.1-37.6c7.8-22.4,2-41.7,0-48c-4.6-14.7-12.4-24-17.3-29.8
			c-9.9-11.7-18.3-21.6-31.1-22.9C1513.8-189.9,1506-185.2,1491.3-176.4z"/>
		<path id="XMLID_1304_" class="st2" d="M1468.2-137.9c4.1-8.8,7.5-15.4,7.9-16.2c5.9-11,30.9-28.9,33.3-30.6
			c3-4.6,5.5-9.9,3.5-12.9c-3.8-5.7-23.5-2-36.8,7.9c-1.7,1.2-23.5,18.1-18.8,39.1c1.7,7.6,6.3,12.9,9.4,15.9
			C1467.1-135.5,1467.6-136.6,1468.2-137.9z"/>
		<path id="XMLID_1312_" class="st2" d="M1497.1-190.3c-3.3,6.8-1.4,14,0.6,21.5c0.4,1.4,6.2,22.1,25.9,32.7
			c5.7,3,13.6,7.3,20.9,4.4c3.8-1.5,5-4.1,8.2-3.8c5.3,0.4,10,7.1,10.9,13.5c0.1,0.7,1.2,10-4.7,13.8c-3.8,2.5-8.8,1.5-9.2,1.4
			c-2.9-0.6-3.4-1.9-5.5-2c-1-0.1-3.8,0.5-9.4,6.5c-9.6,10.2-12.2,25-12.9,30.9c1.7-2.8,3.3-5.7,5-8.5c-1.3,4.4-2.7,11.9-1.5,20.9
			c0.5,3.3,2.6,18.9,14.8,29.3c16.7,14.1,44.9,12.5,60.1-2.2c10.3-9.9,11.9-23,12.5-28.1c2.4-18.8-7.3-20.5-13.9-55.8
			c-1.9-10.3-3.9-20.3-8.3-36c-1.1-4-2.8-8.6-5.6-14.3c-6.3-13.1-12.3-25.2-25.3-32.7C1538.3-211.2,1505-206.8,1497.1-190.3z"/>
		<path id="XMLID_1320_" class="st2" d="M1480.9-75.2c-1.6,3.7-3.6,9.7-3.9,17.3c-0.3,7.2-0.7,15.6,4.8,22.1
			c6.3,7.5,19.9,11.5,30.3,4.8c7.4-4.8,11.3-14,9.9-23.3c-0.6-2.9-1.2-5.8-1.7-8.6c-4.2,0.5-10.1,0.6-16.9-0.9
			C1492.4-66.4,1484.8-71.9,1480.9-75.2z"/>
		<path id="XMLID_1336_" class="st10" d="M1509.2-147.2c4.8,8,8.4,15.2,11.1,21c5.5,12,8.3,18.2,8.1,24.7c-0.2,6.1-2,7.4-5.5,21.8
			c-1.6,6.7-2.7,12.2-3.3,15.9c2-2.1,3.9-4.2,5.9-6.3c-0.5,3.9-0.9,10.3,1.1,17.7c0.4,1.5,6.1,21.1,25.1,29.5
			c17.2,7.6,38.9,3.2,40.2-2.9c0.6-3.2-4.5-5.1-10.7-11.1c-16.1-15.3-25.9-44.1-17.7-64.1c5-12.1,13-12.4,14.7-24
			c2.1-13.8-7.5-25.8-11.1-30.2c-20.7-26-58.8-24.6-65.3-24.3c-2,1.8-3.9,3.7-5.9,5.5c1.1,3.8,2.7,8,4.8,12.5
			C1503.4-155.8,1506.4-151,1509.2-147.2z"/>
		<path id="XMLID_1345_" class="st11" d="M1458.8-109c5-1.4,9.1-1.9,12-2.2c4.7-0.4,6.1,0.1,6.5,0.9c0.5,1-0.3,2.4-1.9,4.9
			c-1.1,1.9-2.2,3.3-3.1,4.3c-0.5-2-1-3.9-1.5-5.9C1466.8-107.6,1462.8-108.3,1458.8-109z"/>
		<g id="XMLID_1_">
			<g id="XMLID_1273_">
				<path id="XMLID_1278_" class="st5" d="M1468.6-139c-3.9,10.4-7.8,20.7-11.9,31c-0.3,0.8,0.5,2,1.4,1.9c4.1-0.5,8.1-0.7,12.2-0.8
					c1.9,0,1.9-3,0-3c-4.1,0-8.2,0.3-12.2,0.8c0.5,0.6,1,1.3,1.4,1.9c4-10.3,8-20.6,11.9-31C1472.2-140,1469.3-140.8,1468.6-139
					L1468.6-139z"/>
			</g>
		</g>
		<g id="XMLID_743_">
			<g id="XMLID_1282_">
				<path id="XMLID_1286_" class="st5" d="M1469.8-107.7c0.8,13.1,5.2,28.5,15.5,37.3c9.5,8.1,22.7,9.8,34.7,9c1.9-0.1,1.9-3.1,0-3
					c-11.2,0.7-23.7-0.6-32.6-8.1c-9.8-8.2-13.9-22.9-14.6-35.2C1472.7-109.6,1469.7-109.6,1469.8-107.7L1469.8-107.7z"/>
			</g>
		</g>
		<g id="XMLID_749_">
			<g id="XMLID_1290_">
				<path id="XMLID_1294_" class="st5" d="M1518.7-61.7c2.3,4.6,3.2,9.6,3,14.7c-0.1,1.9,2.9,1.9,3,0c0.3-5.7-0.9-11.1-3.4-16.2
					C1520.5-65,1517.9-63.4,1518.7-61.7L1518.7-61.7z"/>
			</g>
		</g>
		<g id="XMLID_755_">
			<g id="XMLID_1298_">
				<path id="XMLID_1303_" class="st5" d="M1545.6-130.7c6.7-9.5,16.7,4,16.6,11c-0.1,8.7-9,15-16.7,9.8c-1.6-1.1-3.1,1.5-1.5,2.6
					c10.6,7.3,22.7-3.3,21-14.9c-1.4-9.7-14.3-20.9-22-10C1541.9-130.6,1544.5-129.1,1545.6-130.7L1545.6-130.7z"/>
			</g>
		</g>
		<g id="XMLID_761_">
			<g id="XMLID_1306_">
				<path id="XMLID_1311_" class="st5" d="M1486.8-143.4c-0.1,1.9,0,3.9,0.3,5.8c0.2,1.6,0.4,3.6,1.2,5c1.1,1.8,3.9,1.1,3.4-1.1
					c-0.5-1.9-3.3-1.1-2.9,0.8c0,0.1,0,0.1,0,0.2c0.1-0.5,0.3-1,0.4-1.5c0.1-0.1,0.2-0.1,0.3-0.2c0.5,0.1,1,0.3,1.5,0.4
					c-0.5-0.4-0.8-3.2-0.9-4.2c-0.2-1.7-0.3-3.5-0.2-5.2C1489.8-145.3,1486.8-145.3,1486.8-143.4L1486.8-143.4z"/>
			</g>
		</g>
		<g id="XMLID_767_">
			<g id="XMLID_1314_">
				<path id="XMLID_1319_" class="st5" d="M1487.6-142.3c1.3,2.9,1.7,6.1,1.5,9.3c-0.1,1.9,2.9,1.9,3,0c0.3-3.8-0.4-7.3-1.9-10.8
					C1489.5-145.6,1486.9-144.1,1487.6-142.3L1487.6-142.3z"/>
			</g>
		</g>
		<g id="XMLID_768_">
			<g id="XMLID_1322_">
				<path id="XMLID_1327_" class="st5" d="M1483.1-151.8c4.4-7,12.4-1.8,15,3.7c0.8,1.7,3.4,0.2,2.6-1.5
					c-3.6-7.7-14.7-12.5-20.1-3.7C1479.5-151.6,1482.1-150.1,1483.1-151.8L1483.1-151.8z"/>
			</g>
		</g>
		<g id="XMLID_771_">
			<g id="XMLID_1331_">
				<path id="XMLID_1335_" class="st5" d="M1474.1-93.2c6,2,12.6-0.6,15.7-6.1c0.9-1.7-1.6-3.2-2.6-1.5c-2.5,4.4-7.6,6.3-12.3,4.7
					C1473-96.7,1472.2-93.8,1474.1-93.2L1474.1-93.2z"/>
			</g>
		</g>
		<g id="XMLID_1271_">
			<g id="XMLID_1339_">
				<path id="XMLID_1343_" class="st5" d="M1485.5-99.8c1.9-0.2,3.8,1.3,3.9,3.3c0.1,1.9,3.1,1.9,3,0c-0.2-3.5-3.3-6.6-6.9-6.3
					C1483.6-102.7,1483.6-99.7,1485.5-99.8L1485.5-99.8z"/>
			</g>
		</g>
		<g id="XMLID_1279_">
			<g id="XMLID_1347_">
				<path id="XMLID_1352_" class="st5" d="M1492.7-122.4c1.9,0,1.9-3,0-3C1490.7-125.4,1490.7-122.4,1492.7-122.4L1492.7-122.4z"/>
			</g>
		</g>
		<g id="XMLID_1287_">
			<g id="XMLID_1355_">
				<path id="XMLID_1361_" class="st5" d="M1500.6-128.4c1.9,0,1.9-3,0-3S1498.7-128.4,1500.6-128.4L1500.6-128.4z"/>
			</g>
		</g>
		<g id="XMLID_1296_">
			<g id="XMLID_1364_">
				<path id="XMLID_1371_" class="st5" d="M1497.9-123.5c0,0.1,0,0.3,0,0.4c0,0.8,0.7,1.5,1.5,1.5s1.5-0.7,1.5-1.5
					c0-0.1,0-0.3,0-0.4c0-0.8-0.7-1.5-1.5-1.5C1498.6-125,1497.9-124.4,1497.9-123.5L1497.9-123.5z"/>
			</g>
		</g>
	</g>
</g>
<g id="guy">
	<g id="leg_right">
		<path id="XMLID_2270_" d="M1138.4,660.8c-0.9,24.9-1.9,49.8-2.8,74.7c77.8,13.2,117.8,15.7,120.1,7.6c2-7.1-24.5-22.2-79.5-45.4
			c6.3-50.5,5.4-77-2.8-79.5C1166.6,616.2,1155,630.4,1138.4,660.8z"/>
		<path id="XMLID_2272_" class="st3" d="M1217.8,227.6c0,8.5,0,21.3,0,36.9c0.1,61.1,0.8,88,0.9,110.7
			c0.4,83.2-7.2,151.6-11.4,188.3c-3.9,34.2-8.1,62.5-11.4,82.3c-3.4,3.5-9.4,8.6-18,11.9c-4.1,1.6-7.4,2.2-9.7,2.7
			c-3.6,0.7-17.6,3-34.7-2.2c-4.4-1.3-10.4-3.6-17-7.6c4.9-27.7,10.8-64.1,16.1-106.9c4.3-35.1,11.3-99.3,14.2-180.7
			c1.4-41.2,2-91,0-147.6C1170.5,219.4,1194.2,223.5,1217.8,227.6z"/>
		<path id="XMLID_2279_" class="st7" d="M1149.7,313.7c5-12.5,11.4-26.4,15.1-25.5c5.5,1.3,2.2,34,0,58.7c-5,56-5.7,112.3-9.5,168.4
			c-2.3,34.9-4.9,84.4-5.7,144.7c-11-2.8-22.1-5.7-33.1-8.5c11.2-63.7,20.5-132.9,26.5-207.2
			C1146.7,398.9,1148.8,355.3,1149.7,313.7z"/>
		<g id="XMLID_2252_">
			<g id="XMLID_2293_">
				<path id="XMLID_2297_" class="st5" d="M1215.5,238.9c4.5,105.7,1.3,211.7-9.5,316.9c-3.1,29.9-6.8,59.8-11.1,89.6
					c-0.3,1.9,2.6,2.7,2.9,0.8c15.1-104.8,22.8-210.7,22.6-316.6c0-30.2-0.7-60.4-2-90.6C1218.4,237,1215.4,236.9,1215.5,238.9
					L1215.5,238.9z"/>
			</g>
		</g>
		<g id="XMLID_2254_">
			<g id="XMLID_2301_">
				<path id="XMLID_2305_" class="st5" d="M1148.7,314.6c-3.3,87.4-10.5,174.7-21.6,261.4c-3.2,25.3-6.8,50.6-10.7,75.8
					c-0.3,1.9,2.6,2.7,2.9,0.8c13.5-87.2,23.1-175,28.7-263.1c1.6-24.9,2.8-49.9,3.8-74.9C1151.8,312.7,1148.8,312.7,1148.7,314.6
					L1148.7,314.6z"/>
			</g>
		</g>
		<g id="XMLID_2262_">
			<g id="XMLID_2309_">
				<path id="XMLID_2314_" class="st5" d="M1117.7,654.2c13.7,6.2,28.6,9.1,43.6,7.9c12.5-1,27.2-4,34.9-14.8
					c1.1-1.6-1.5-3.1-2.6-1.5c-7.6,10.6-23.6,13-35.7,13.5c-13.3,0.5-26.5-2.2-38.7-7.7C1117.5,650.8,1116,653.4,1117.7,654.2
					L1117.7,654.2z"/>
			</g>
		</g>
	</g>
	<g id="leg_left">
		<path id="XMLID_2248_" d="M1026.8,634.3c-9.5,30.3-18.9,60.5-28.4,90.8c74.8,22,113.6,29.6,116.4,22.7
			c2.3-5.7-20.4-21.5-68.1-47.3c24.4-32.4,30.8-61.6,20.8-70.9C1057.3,620.2,1031.6,632,1026.8,634.3z"/>
		<path id="XMLID_2241_" class="st3" d="M1078.8,232.3c-0.5,2.2-1.3,9.7-2.8,24.6c-2.4,23.2-3.7,40.4-3.8,41.6
			c-5,65.8-14.2,123-14.2,123c-10.2,63.3-24.3,112.9-34.1,146.6c-7.2,25-13.9,45.8-18.9,60.5c8.3,10.4,16.8,16.9,22.7,20.8
			c9,5.9,19.7,13,34.1,12.3c5.7-0.3,10.2-1.7,13.2-2.8c4.3-12.5,11.7-34.2,19.9-61.5c15.1-50.3,27.6-107.4,52-219.5
			c1.1-5,15.1-69.5,16.1-73.8c8.8-10.4,17.7-20.8,26.5-31.2c14.9-34.8,14.4-70.2-2.8-85.1C1157.9,162.9,1086.9,198.2,1078.8,232.3z"
			/>
		<path id="XMLID_2249_" class="st4" d="M1077.8,252.2c1.2,8.7,2.7,21.8,3.8,37.8c4.8,74.1-7,126.5-18,185.4
			c-7.6,40.6-17.9,100.6-27.4,176.9c-10.4-7.9-20.8-15.8-31.2-23.6c5.3-15.7,12.9-38.8,20.8-67.2c25.6-91.6,35.6-166.5,42.6-220.4
			C1071.2,318.9,1074.8,288.6,1077.8,252.2z"/>
		<g id="XMLID_2224_">
			<g id="XMLID_2256_">
				<path id="XMLID_2261_" class="st5" d="M1074.5,239c-3.4,102.9-18.6,205.4-45.3,304.8c-7.5,28.1-16,55.9-25.4,83.5
					c-0.6,1.8,2.3,2.6,2.9,0.8c33.1-97.8,55-199.3,65.1-302c2.8-29,4.7-58,5.7-87.1C1077.6,237,1074.6,237,1074.5,239L1074.5,239z"
					/>
			</g>
		</g>
		<g id="XMLID_2232_">
			<g id="XMLID_2265_">
				<path id="XMLID_2269_" class="st5" d="M1184.5,275.9c-7.5,9.4-15,18.8-22.5,28.2c-1.2,1.5,0.9,3.6,2.1,2.1
					c7.5-9.4,15-18.8,22.5-28.2C1187.8,276.5,1185.7,274.4,1184.5,275.9L1184.5,275.9z"/>
			</g>
		</g>
		<g id="XMLID_2233_">
			<g id="XMLID_2273_">
				<path id="XMLID_2277_" class="st5" d="M1162.3,302.6c-18.2,93.6-37.7,187-64.2,278.7c-7.5,26-15.6,51.8-24.3,77.4
					c-0.6,1.8,2.3,2.6,2.9,0.8c30.7-90.3,53.1-183.1,72.5-276.5c5.5-26.5,10.8-53.1,15.9-79.6
					C1165.5,301.6,1162.6,300.7,1162.3,302.6L1162.3,302.6z"/>
			</g>
		</g>
		<g id="XMLID_2240_">
			<g id="XMLID_2281_">
				<path id="XMLID_2286_" class="st5" d="M1004.5,629.3c4.1,5.8,9.9,10.1,15.4,14.6c5.2,4.2,10.6,8.2,16.4,11.6
					c11.5,6.7,26.2,11.4,39.2,6.3c1.8-0.7,1-3.6-0.8-2.9c-12.8,5.1-27.1,0-38.3-6.8c-5.5-3.3-10.7-7.2-15.7-11.3
					c-4.8-3.9-10-7.8-13.7-12.9C1006,626.3,1003.4,627.8,1004.5,629.3L1004.5,629.3z"/>
			</g>
		</g>
	</g>
	<g id="arm_right">
		<path id="XMLID_2183_" class="st3" d="M1194.7-79.9c5.1-1.1,11.9,7.5,15.6,12.1c5.7,7.1,8.2,14.2,9.8,19.6
			c5.3,17.6,6.4,35.1,6.3,48.4c0.9,6,3.1,15.3,8.6,25.4c1.9,3.4,10.8,18.9,30,30c12,6.9,23.4,9.4,31.1,10.4c-1.5,1.5-3,3-4.5,4.5
			c4.3,0.4,7.6,1.3,9.9,2c5.1,1.6,7.8,2.4,8.7,2.8c1.7,0.7,3.1,1.4,4,1.9c-0.6,0.7-1.9,2.6-1.9,5.3c0,3,1.6,6,4.1,7.4
			c2.4,1.4,5.9,0.7,12.7-0.7c1.3-0.3,2.4-0.5,3.2-0.7c1.6-0.2,4.2-0.2,6.8,1c4.1,1.9,5.7,5.8,7.9,10.7c1.6,3.6,3.8,8.5,2.8,14.6
			c-0.3,1.8-0.9,5.2-3.6,7.9c-0.6,0.6-1,0.9-5.9,3.6c-5.7,3.1-6.8,3.5-7.9,4c-3.6,1.3-5.4,2-7.5,1.2c-2-0.7-4-2.7-4-4.7
			c0.1-2.4,3.1-2.8,3.2-4.7c0.1-2.4-4.2-2.9-9.1-7.5c-3.4-3.2-2.8-4.2-6.3-7.1c-1.3-1.1-3.7-3-7.1-4.3c-1.6-0.7-2.6-0.8-5.1-2
			c-3.3-1.5-4.1-2.3-4.6-3c-1-1.5-0.4-2.3-1.3-3.3c-1.2-1.2-3.1-0.8-5.4-0.8c-2,0-4.7-0.4-8-2c-1.3,9.2-2.6,18.4-4,27.7
			c-5.1-1.2-12.5-3.4-20.5-7.9c-10.9-6.2-22.4-16.3-37.5-45c-11.2-21.2-25.4-48.3-28.8-87.3C1184.1-44.6,1185.6-77.9,1194.7-79.9z"
			/>
		<path id="XMLID_2191_" class="st7" d="M1195.7-79c0.2,6.2,0.8,14.2,2,23.6c0.6,4.5,1.8,12.5,4.5,24.6
			c4.7,20.5,10.4,37.6,14.1,48.2c12.4,35,18.7,52.9,31.4,64.4c9.5,8.6,19.3,13.4,25.9,16c0.1,6.9,0.2,13.8,0.3,20.7
			c-2.9,0.2-7.3,0.1-12.2-1.5c-7.6-2.4-12.3-7-15.4-10.2c-13.2-13.4-19.8-20.1-26.2-30.6c-26.3-42.9-30-91.4-30-91.4
			C1189.1-30.1,1189.2-52.4,1195.7-79z"/>
		<path id="XMLID_2199_" class="st12" d="M1293.3,71.3c0.6,0.5-1.9,3.3-3.5,7.6c-2.2,5.8-1.7,11.4-0.9,15.4
			c-3.8-0.8-7.6-1.6-11.4-2.3c0.8-3.4,2.5-8.7,6.7-13.7C1287.8,74,1292.6,70.6,1293.3,71.3z"/>
		<path id="XMLID_2207_" class="st7" d="M1326.2,112.9c4-2.5,4.4-3.1,6.1-4.1c2.6-1.5,7.8-3.7,16.9-2.6c0.4,2.8,0.8,8.5-2,13.1
			c-1,1.7-2.7,3.6-2.9,3.8c-0.9,1.1-2.7,2.9-5.2,4.7c-1.9,1.3-4.9,3.3-9,3.5c-2.7,0.1-7-0.4-7.6-2.3c-0.5-1.8,2.7-3.2,2.3-5.5
			c-0.4-2.8-5.5-3.1-5.5-5.2C1319.2,116.8,1321.3,116,1326.2,112.9z"/>
		<g id="XMLID_2050_">
			<g id="XMLID_2108_">
				<path id="XMLID_2112_" class="st5" d="M1190.9-79.8c7,4,14.2,8,19.8,14c6.5,6.9,8.8,15.7,10.2,24.8c3.1,19.8,4.5,39.9,4.8,60
					c0,1.9,3,1.9,3,0c-0.3-21.3-1.6-43-5.4-64c-1.5-8.3-4.2-16-9.9-22.3c-5.8-6.4-13.5-10.8-20.9-15
					C1190.7-83.3,1189.2-80.7,1190.9-79.8L1190.9-79.8z"/>
			</g>
		</g>
		<g id="XMLID_2060_">
			<g id="XMLID_2116_">
				<path id="XMLID_2121_" class="st5" d="M1225.2-18c-2.6,37.9,21.8,72.6,58.3,83.1c1.9,0.5,2.7-2.4,0.8-2.9
					C1249,52,1225.7,18.6,1228.2-18C1228.4-19.9,1225.4-19.9,1225.2-18L1225.2-18z"/>
			</g>
		</g>
		<g id="XMLID_2068_">
			<g id="XMLID_2124_">
				<path id="XMLID_2133_" class="st5" d="M1282.6,65c4.6,0.4,8.8,1.4,13.1,3.2c-0.1-0.9-0.2-1.8-0.4-2.7
					c-18.6,10.6-23.9,30.5-22.1,50.7c0.2,1.9,3.2,1.9,3,0c-1.7-19.2,2.9-38,20.6-48.1c1.2-0.7,0.8-2.3-0.4-2.7
					c-4.5-1.9-9.1-3-13.9-3.4C1280.7,61.8,1280.7,64.8,1282.6,65L1282.6,65z"/>
			</g>
		</g>
		<g id="XMLID_2077_">
			<g id="XMLID_2136_">
				<path id="XMLID_2141_" class="st5" d="M1215.5,71.7c6.3,11.9,14.6,22.6,24.6,31.6c9.5,8.5,21,17.2,34.4,16.7
					c1.9-0.1,1.9-3.1,0-3c-13.4,0.5-25.4-9.3-34.6-18c-8.8-8.3-16.1-18.1-21.8-28.8C1217.2,68.5,1214.6,70,1215.5,71.7L1215.5,71.7z
					"/>
			</g>
		</g>
		<g id="XMLID_2087_">
			<g id="XMLID_2144_">
				<path id="XMLID_2149_" class="st5" d="M1292.6,71c7.6,2.1,15.2,4.2,22.7,6.3c1.9,0.5,2.7-2.4,0.8-2.9
					c-7.6-2.1-15.2-4.2-22.7-6.3C1291.5,67.6,1290.7,70.5,1292.6,71L1292.6,71z"/>
			</g>
		</g>
		<g id="XMLID_2088_">
			<g id="XMLID_2153_">
				<path id="XMLID_2157_" class="st5" d="M1333,88.9c6.6,0.6,11.2,5.9,13.1,12c0.9,2.9,1.2,6,1.3,9c0,1-0.1,13.3-3,11.2
					c-1.6-1.1-3.1,1.5-1.5,2.6c9,6.3,7.6-15.4,7.2-18.6c-1.2-9.4-7-18.4-17.1-19.3C1331,85.7,1331.1,88.7,1333,88.9L1333,88.9z"/>
			</g>
		</g>
		<g id="XMLID_2095_">
			<g id="XMLID_2161_">
				<path id="XMLID_2165_" class="st5" d="M1340.7,108.4c1.1,6.3,2.1,13.5-3.6,17.8c-1.5,1.2,0.6,3.3,2.1,2.1
					c6.5-5.1,5.6-13.5,4.4-20.8C1343.3,105.7,1340.4,106.5,1340.7,108.4L1340.7,108.4z"/>
			</g>
		</g>
		<g id="XMLID_2103_">
			<g id="XMLID_2169_">
				<path id="XMLID_2174_" class="st5" d="M1333.2,113c1.1,5.3,2.3,12.2-3.1,15.6c-1.6,1-0.1,3.6,1.5,2.6c6.7-4.2,5.9-12.3,4.5-19
					C1335.7,110.4,1332.8,111.2,1333.2,113L1333.2,113z"/>
			</g>
		</g>
		<g id="XMLID_2105_">
			<g id="XMLID_2177_">
				<path id="XMLID_2182_" class="st5" d="M1326.6,114.3c1.7,5.6,1.2,11.2-1.5,16.3c-0.9,1.7,1.7,3.2,2.6,1.5
					c3.1-5.8,3.7-12.3,1.8-18.6C1329,111.7,1326.1,112.5,1326.6,114.3L1326.6,114.3z"/>
			</g>
		</g>
		<g id="XMLID_2114_">
			<g id="XMLID_2185_">
				<path id="XMLID_2190_" class="st5" d="M1277,94c4.2,1,8.5,2,12.7,3c1.9,0.4,2.7-2.5,0.8-2.9c-4.2-1-8.5-2-12.7-3
					C1276,90.6,1275.2,93.5,1277,94L1277,94z"/>
			</g>
		</g>
		<g id="XMLID_2122_">
			<g id="XMLID_2193_">
				<path id="XMLID_2198_" class="st5" d="M1275.3,119.8c5.6-7,9.4-14.8,11.3-23.5c0.4-1.9-2.5-2.7-2.9-0.8
					c-1.8,8.2-5.3,15.6-10.5,22.2C1272,119.1,1274.1,121.3,1275.3,119.8L1275.3,119.8z"/>
			</g>
		</g>
		<g id="XMLID_2134_">
			<g id="XMLID_2202_">
				<path id="XMLID_2206_" class="st5" d="M1275.1,94.1c0.6,6.2,0.4,12.3-0.7,18.4c-0.4,1.9,2.3,2.7,2.9,0.8
					c1.9-6.2,4-12.4,6.2-18.6c0.6-1.5-1.5-2.3-2.5-1.5c-0.6,0-1.2-0.1-1.8-0.1c-0.1,0.9-0.2,1.8-0.4,2.7c0.9-0.2,3-0.1,3.3,1.1
					c0.2,0.6-1.5,2.8-1.7,3.3c-1,2-2.1,3.9-3.1,5.9c-0.9,1.7,1.5,3,2.6,1.5c3-4,4.3-8.6,4.1-13.6c-0.1-1.5-2-2-2.8-0.8
					c-3,4.6-4.9,9.6-5.7,15.1c1,0.1,2,0.3,2.9,0.4c0-4,0.7-7.8,2.3-11.5c-1-0.1-2-0.3-2.9-0.4c-0.4,3.4-1.1,6.8-1.9,10.1
					c-0.4,1.9,2.4,2.7,2.9,0.8c0.9-3.6,1.5-7.3,2-10.9c0.2-1.8-2.4-1.8-2.9-0.4c-1.7,4-2.4,8-2.4,12.3c0,1.6,2.7,2.1,2.9,0.4
					c0.7-5.2,2.5-9.9,5.4-14.3c-0.9-0.3-1.9-0.5-2.8-0.8c0.2,4.5-1.1,8.5-3.7,12.1c0.9,0.5,1.7,1,2.6,1.5c1.4-2.6,2.8-5.2,4.1-7.9
					c0.7-1.4,1.6-2.6,1.3-4.2c-0.7-3.5-4.6-3.3-7.3-2.6c-1.4,0.4-1.3,2-0.4,2.7c1.8,1.4,3.8,1.1,5.5-0.4c-0.8-0.5-1.7-1-2.5-1.5
					c-2.2,6.1-4.3,12.3-6.2,18.6c1,0.3,1.9,0.5,2.9,0.8c1.2-6.4,1.5-12.8,0.8-19.2C1277.9,92.2,1274.9,92.2,1275.1,94.1L1275.1,94.1
					z"/>
			</g>
		</g>
	</g>
	<g id="torso">
		<path id="XMLID_1986_" class="st1" d="M1086.5-73.7c7.5,30.7,13.8,65.9,17,105.1c6.7,81.5-2.6,151.3-14.2,203.4
			c11.4,5.2,32.7,13.1,60.2,12.5c35.3-0.8,60.8-15.2,71.6-22.2c-2.8-43.2-7.4-89.2-14.2-137.5c-9.1-64.4-21-123.9-34.1-177.9
			c-4.3-2.5-25.3-13.8-51.1-6.8C1101.8-91.7,1090.3-78.6,1086.5-73.7z"/>
		<path id="XMLID_1970_" class="st3" d="M1113.8-105.6c-1.5,0.1-3.7,0.3-6.3,1.1c-6.8,2.1-10.8,6.6-13.1,9.1
			c-4.4,4.7-10.7,10.8-20.5,18.8c-4.8,36.7-5.4,64.3-5.1,83c0.1,7.7,0.6,21.1,0.6,42.1c0,13.5,0,28.4-0.6,41.5
			c-1.1,25.4-4.5,44.4-11.4,81.3c-3.1,16.6-7.5,38.9-13.6,65.4c10.8,6.1,20.3,10,27.3,12.5c13.4,4.7,25.6,8.9,40.9,6.8
			c5.1-0.7,9.3-1.9,11.9-2.8c1.9-10.2,4.5-25.5,6.8-44.3c7.4-60,5.9-107.3,4.5-143.2c-0.7-18.8-1.7-44.4-5.7-78.4
			C1125.4-49.7,1119.3-81.1,1113.8-105.6z"/>
		<path id="XMLID_1978_" class="st3" d="M1143.3-99.3c3.4,2.2,8.2,5.8,12.5,11.4c9.9,13,10.1,28,10.2,34.1
			c0.8,31.7,8.7,62.8,11.4,94.3c1.7,19.7,0.8,7,6.3,67.1c4.8,52,5.7,64.1,6.3,71.6c1.4,18.4,2.8,41.4,4,68.2c5,0.4,10.8,0.6,17,0
			c8.2-0.7,16.3-1.4,25-6.3c5.7-3.2,9.8-7.1,12.5-10.2c-0.7-11.8-2.1-30.3-4.5-52.8c-2.7-24.7-8-65.9-32.4-180.7
			c-4.1-19.2-9.8-45.9-17-77.9c-11.4-6.6-20.1-12.3-26.1-16.5c-6.9-4.8-12.9-9.3-18.8-7.4C1146.5-103.5,1144.5-101.2,1143.3-99.3z"
			/>
		<path id="XMLID_1994_" class="st12" d="M1068.9,0.1c1.1,6.8,2.9,17.7,4.5,31.3c7.7,62.2,4.1,95.4,8,167.6
			c0.7,12.6,1.9,31.5,4,54.6c-5.3-1.8-10.8-3.9-16.5-6.3c-9.5-4-18-8.3-25.6-12.5c2.9-10.7,6.6-25.3,10.2-42.6
			c9.6-45.9,13-82.3,14.2-98.9C1069.7,67.2,1070.7,35.8,1068.9,0.1z"/>
		<path id="XMLID_2002_" class="st6" d="M1145-97.6c-4.8,2,10.4,39.5,18.2,94.9c1.8,13,3.2,26.7,4.5,58.5
			c2.9,69.5,2.2,141.6,1.1,189.2c8-1.9,15.9-3.8,23.9-5.7c-0.2-8.3-0.5-20.5-1.1-35.2c-3.3-79.9-10.9-142.1-17-192.1
			c-2.8-22.4-6.7-52-11.9-86.9C1150.9-94.9,1146.7-98.3,1145-97.6z"/>
		<path id="XMLID_2013_" class="st13" d="M1182.5-75.5c0.6,4.4,1.4,10.6,2.3,18.2c2.6,23,3.7,40.6,4.5,55.1
			c1.1,19.9,1.6,35.3,1.7,39.5c0,0.3,0,0.7,0,0.8c1.2,44.7,7.2,209.3,4.8,209.5c-1.2,0.1-5.3-43.4-15.6-187.3
			c0.2-10.4,0.4-20.8,0.6-31.3c-0.4-39.8-0.3-67.6,0.9-76.2c0.3-2.1,1.1-7-1.2-12.1c-1.8-4.1-3.6-3.9-5.5-8.4
			c-2.1-5.1-1.8-10.3-1.7-12.7c0.2-3.8,0.8-4.3,0.6-6.9c-0.4-4.1-2.4-7.2-4-9.2c3.8,2.4,7.7,4.8,11.5,7.2
			C1181.8-84.6,1182.2-80,1182.5-75.5z"/>
		<g id="XMLID_1841_">
			<g id="XMLID_1925_">
				<path id="XMLID_1930_" class="st5" d="M1116-102c-2-8.3-13.7-1.6-17.3,1.3c-9.3,7.5-18.2,15.7-26.9,23.8
					c-1.4,1.3,0.7,3.4,2.1,2.1c5.6-5.3,11.3-10.4,17.2-15.5c2.3-2,20.3-18.5,22.1-10.9C1113.6-99.3,1116.4-100.1,1116-102L1116-102z
					"/>
			</g>
		</g>
		<g id="XMLID_1887_">
			<g id="XMLID_1933_">
				<path id="XMLID_1944_" class="st5" d="M1067,3.2c2.1,40.2,1.2,80.5-2.9,120.6c-0.2,1.9,2.8,1.9,3,0c4-40.1,5-80.4,2.9-120.6
					C1069.9,1.3,1066.9,1.3,1067,3.2L1067,3.2z"/>
			</g>
		</g>
		<g id="XMLID_1895_">
			<g id="XMLID_1947_">
				<path id="XMLID_1952_" class="st5" d="M1112-106.8c-9.2,2.8-15.2,12.3-14.1,21.9c0.7,5.9,4.7,9.6,7.6,14.5
					c4.3,7,0.1,16.3-0.2,24.1c-0.5,16.3,4.3,32.2,8.7,47.7c4.6,16,9.5,31.8,13.4,48c4.6,18.9,7.7,38.2,7.4,57.7c0,1.9,3,1.9,3,0
					c0.5-39.5-12.7-77-23.2-114.6c-2.8-9.9-5.3-20-6.1-30.3c-0.4-5.5-0.4-11,0.5-16.4c0.6-3.9,2.2-7.8,1.5-11.8
					c-1.3-7.5-8.9-11.8-9.8-19.4c-0.9-8,4.2-16,11.9-18.4C1114.7-104.5,1113.9-107.4,1112-106.8L1112-106.8z"/>
			</g>
		</g>
		<g id="XMLID_1903_">
			<g id="XMLID_1956_">
				<path id="XMLID_1960_" class="st5" d="M1112.3-102.9c18.3,89.2,26.1,180.6,20.3,271.5c-1.7,26.1-4.4,52.1-8.4,78
					c-0.3,1.9,2.6,2.7,2.9,0.8c13.8-91,13.3-183.7,1.1-274.8c-3.4-25.6-7.8-51.1-13-76.4C1114.8-105.6,1111.9-104.8,1112.3-102.9
					L1112.3-102.9z"/>
			</g>
		</g>
		<g id="XMLID_1904_">
			<g id="XMLID_1964_">
				<path id="XMLID_1968_" class="st5" d="M1146.6-102.6c4.1-3.2,12.3,1.2,15.9,3.7c4.7,3.2,8.2,7.7,10.4,13c0.7,1.8,3.6,1,2.9-0.8
					c-2.8-6.7-7.4-12.2-13.6-15.9c-5-2.9-12.6-6.1-17.7-2.1C1142.9-103.5,1145.1-101.4,1146.6-102.6L1146.6-102.6z"/>
			</g>
		</g>
		<g id="XMLID_1911_">
			<g id="XMLID_1972_">
				<path id="XMLID_1977_" class="st5" d="M1143.3-96.3c20.4,10.7,20.7,38.6,23.3,58.5c3,22.8,5.8,45.7,8.4,68.6
					c5.1,45.8,9.4,91.6,12.9,137.6c2,26.2,3.7,52.5,5.1,78.8c0.1,1.9,3.1,1.9,3,0c-5.2-96.3-14.1-192.3-26.7-287.9
					c-2.7-20.4-3.6-47.3-24.4-58.1C1143.1-99.8,1141.6-97.2,1143.3-96.3L1143.3-96.3z"/>
			</g>
		</g>
		<g id="XMLID_1912_">
			<g id="XMLID_1980_">
				<path id="XMLID_1985_" class="st5" d="M1172.7-87.2c1.1,5.5-2,10.9-0.7,16.4c1.2,5.1,5.7,8.6,7.5,13.5
					c2.1,5.8,1.6,12.3,1.5,18.3c-0.1,7-0.2,13.9-0.3,20.9c-0.5,26.8-1.5,53.6-2.9,80.4c-0.1,1.9,2.9,1.9,3,0
					c1.5-27.5,2.5-54.9,3-82.4c0.1-6.6,0.2-13.2,0.3-19.9c0.1-5.5,0.3-11.2-1.2-16.6c-1.4-4.9-4.9-8.1-7.1-12.6
					c-2.8-5.9,1-12.6-0.2-18.8C1175.2-89.9,1172.3-89.1,1172.7-87.2L1172.7-87.2z"/>
			</g>
		</g>
		<g id="XMLID_1920_">
			<g id="XMLID_1988_">
				<path id="XMLID_1993_" class="st5" d="M1168.7-94.1c8.9,4.1,17,9.5,24.2,16.1c1.4,1.3,3.5-0.8,2.1-2.1
					c-7.4-6.8-15.7-12.4-24.8-16.6C1168.4-97.5,1166.9-94.9,1168.7-94.1L1168.7-94.1z"/>
			</g>
		</g>
		<g id="XMLID_1923_">
			<g id="XMLID_1996_">
				<path id="XMLID_2001_" class="st5" d="M1215.3,21.1c15.3,69.3,25.9,139.5,31.6,210.2c0.2,1.9,3.2,1.9,3,0
					c-5.7-71-16.3-141.5-31.7-211C1217.7,18.5,1214.8,19.3,1215.3,21.1L1215.3,21.1z"/>
			</g>
		</g>
		<g id="XMLID_1931_">
			<g id="XMLID_2008_">
				<path id="XMLID_2012_" class="st5" d="M1194.5,248.5c10.7,3,21.5,0.9,31.8-2.6c8.3-2.8,17.9-5.4,23.2-12.9
					c1.1-1.6-1.5-3.1-2.6-1.5c-5,7-15.3,9.6-23.1,12.1c-9.3,3-18.9,4.6-28.5,2C1193.4,245.1,1192.6,248,1194.5,248.5L1194.5,248.5z"
					/>
			</g>
		</g>
		<g id="XMLID_1945_">
			<g id="XMLID_2016_">
				<path id="XMLID_2020_" class="st5" d="M1064.9,113.1c-5.7,40.3-13.2,80.4-22.5,120c-0.4,1.9,2.5,2.7,2.9,0.8
					c9.3-39.6,16.8-79.7,22.5-120C1068.1,112,1065.2,111.2,1064.9,113.1L1064.9,113.1z"/>
			</g>
		</g>
		<g id="XMLID_1953_">
			<g id="XMLID_2024_">
				<path id="XMLID_2033_" class="st5" d="M1043.1,236.7c8.4,4.5,16.9,8.6,25.7,12.2c8.6,3.5,17.6,7.3,26.8,8.6
					c7.5,1.1,16.6,1,24.1-0.7c6.9-1.5,5.8-8,9-13c1-1.6-1.6-3.1-2.6-1.5c-1.3,2.1-1.8,4.3-2.5,6.7c-1.7,5.3-5.4,5-10.1,5.5
					c-8.3,0.7-16.3,0.8-24.4-1.5c-15.4-4.4-30.4-11.3-44.4-18.9C1042.9,233.2,1041.4,235.8,1043.1,236.7L1043.1,236.7z"/>
			</g>
		</g>
		<path id="XMLID_1961_" class="st3" d="M1112.6-105"/>
	</g>
	<g id="arm_left">
		<path id="XMLID_2040_" class="st3" d="M1080.2-81c-6.3,4.2-14.8,10.5-24.1,19.1c-5.8,5.3-10.6,10.4-18.1,19.1
			c-17.4,20.1-26.3,30.4-36.1,46.2c-11.3,18.1-16.9,27.2-19.1,41.1c-2.6,16.8,1,31.4,3,39.6c2.9,11.7,6.7,19.9,10.5,28.1
			c4.6,9.8,12.3,21.2,27.6,43.7c13.3,19.6,18.6,26.5,28.6,32.6c5.7,3.4,10.9,5.4,14.6,6.5c2.2-5.7,4.3-11.4,6.5-17.1
			c1.6,1.7,3.7,4,6,7c4,5.2,5,7.6,6.5,7.5c2.4-0.1,3.9-5.9,5.5-12c7.5-29.2,7.4-33.6,5-35.1c-1.7-1.1-3,0.5-7.5,0
			c-5-0.5-8.9-2.9-11.5-5c2.2-6.6,1.2-10.6,0-13c-2.4-4.7-6.5-4.6-12.5-10.5c-1.3-1.3-1.9-2.1-8-11.5c-6.5-10-9.7-15-10.5-16.6
			c-2.3-4.4-5.3-11.1-7.5-20.1c2-7,4.9-14.9,9-23.1c11.8-23.5,28.1-38.7,39.6-47.7c2.1-9.3,4.1-23.3,2.5-40.1
			C1088.6-59,1084-72.3,1080.2-81z"/>
		<path id="XMLID_2042_" class="st12" d="M1076.2-77.5c-3.4,3.8-8.3,9.5-14,16.6c-20.5,25.3-35.4,43.6-44.7,67.2
			c-1.9,4.9-10,26.3-9.5,55.2c0.7,47.7,24,81.1,33.1,93.8c10.9,15.2,22.2,25.9,30.1,32.6c-1.3,2.3-2.7,4.7-4,7
			c-4.2-2.2-10.5-5.8-17.6-11c-24.2-18.1-35.8-40.4-46.7-61.7c-11.9-23.3-17.8-35-19.6-50.7c-2.4-21.6,1.6-47.7,14.6-63.7
			c1-1.3,1.9-2.2,5-6c12.4-15.1,20.4-26.7,22.1-29.1C1031.3-36.2,1044.7-51.1,1076.2-77.5z"/>
		<g id="XMLID_2015_">
			<g id="XMLID_2044_">
				<path id="XMLID_2049_" class="st5" d="M1074.2-80c-17.5,15.7-33.9,32.6-48.9,50.7c-14,16.9-28.5,34.8-37.4,55
					c-9.1,20.6-8.6,41.4-1.4,62.5c7,20.6,17.3,40.3,29.4,58.4c6.7,10.1,14.2,19.7,22.2,28.7c7.5,8.4,15.5,16.5,26.3,20.4
					c1.8,0.6,2.6-2.3,0.8-2.9c-10.3-3.7-17.9-11.6-25-19.6c-7.1-8-13.7-16.5-19.8-25.3c-11.8-17.1-21.7-35.7-29.1-55.2
					c-4-10.6-7.2-21.8-7.6-33.2c-0.3-11.2,2.3-22.1,6.8-32.3c8.4-19.2,22-36.2,35.2-52.3c15.5-18.9,32.5-36.5,50.7-52.8
					C1077.8-79.2,1075.6-81.3,1074.2-80L1074.2-80z"/>
			</g>
		</g>
		<g id="XMLID_2022_">
			<g id="XMLID_2052_">
				<path id="XMLID_2059_" class="st5" d="M1083.6,1c-22.7,16.7-39,40.8-45.8,68.2c-0.5,1.9,2.4,2.7,2.9,0.8
					c6.6-26.6,22.3-50.2,44.4-66.4C1086.7,2.4,1085.2-0.2,1083.6,1L1083.6,1z"/>
			</g>
		</g>
		<g id="XMLID_2023_">
			<g id="XMLID_2063_">
				<path id="XMLID_2067_" class="st5" d="M1035,62.2c6.3,26.3,21.1,50,41.9,67.3c1.5,1.2,3.6-0.9,2.1-2.1
					c-20.5-17-34.9-40.1-41.2-66C1037.4,59.5,1034.5,60.3,1035,62.2L1035,62.2z"/>
			</g>
		</g>
		<g id="XMLID_2034_">
			<g id="XMLID_2071_">
				<path id="XMLID_2075_" class="st5" d="M1076.7,127.5c0.5,11.4-0.1,22.8-1.8,34c-0.8,5.2-1.8,10.4-3.1,15.6
					c-0.6,2.4-1.2,4.8-1.9,7.2c-0.4,1.4-1.9,8.9-3.6,9.2c0.6,0.2,1.1,0.5,1.7,0.7c-0.1-0.2-0.2-0.3-0.3-0.5c-1-1.6-3.6-0.1-2.6,1.5
					c0.1,0.2,0.2,0.3,0.3,0.5c0.4,0.6,1,0.8,1.7,0.7c3.7-0.6,4.3-6.6,5.2-9.5c2-6.6,3.5-13.2,4.7-20c2.3-13,3.1-26.2,2.6-39.4
					C1079.6,125.6,1076.6,125.5,1076.7,127.5L1076.7,127.5z"/>
			</g>
		</g>
		<g id="XMLID_2035_">
			<g id="XMLID_2079_">
				<path id="XMLID_2086_" class="st5" d="M1077.6,140.8c4.7,3.8,10.2,5.8,16.3,5.9c1.9,0,1.9-3,0-3c-5.2-0.1-10.1-1.7-14.2-5
					C1078.2,137.5,1076.1,139.6,1077.6,140.8L1077.6,140.8z"/>
			</g>
		</g>
		<g id="XMLID_2036_">
			<g id="XMLID_2089_">
				<path id="XMLID_2094_" class="st5" d="M1073.4,181.2c3.2,0.4,4.9,4.2,6.6,6.6c1.6,2.4,3.5,4.6,6.3,5.5c1.8,0.6,2.6-2.3,0.8-2.9
					c-3.3-1.1-4.9-4.8-6.8-7.5c-1.8-2.5-3.8-4.3-6.9-4.7C1071.5,178,1071.5,181,1073.4,181.2L1073.4,181.2z"/>
			</g>
		</g>
		<g id="XMLID_2037_">
			<g id="XMLID_2097_">
				<path id="XMLID_2102_" class="st5" d="M1092,133.3c4.9,11.4,3.1,23.8,0.8,35.5c-2.2,11.4-4.8,22-11.7,31.6
					c-1.1,1.6,1.5,3.1,2.6,1.5c7.6-10.7,10.3-23,12.6-35.8c2.1-11.6,3-23.3-1.8-34.4C1093.9,130,1091.3,131.5,1092,133.3L1092,133.3
					z"/>
			</g>
		</g>
	</g>
	<g id="head">
		<path id="XMLID_1833_" class="st3" d="M1105-184.9c-1.6-0.4-5.5-1.2-9.8,0.4c-1,0.4-8.3,3.1-9.3,10.2c-0.9,5.8,3,11,7.2,13.2
			c1.8,0.9,3.5,1.2,4.7,1.3c0.7,2.3,1.5,5.9,2.1,10.2c1,7.4-0.1,7.7,0.8,11.9c2.3,9.8,10.3,15.9,10.6,16.1c3.4,2.5,4.6,2.1,5.9,4.2
			c2.2,3.4,1.3,7.8,0,14.4c-0.7,3.5-1.5,6.3-2.1,8.1c1.2,1.5,4.8,5.5,11,7.2c6.2,1.7,11.4,0.2,13.2-0.4c1.7-6.9,3.4-13.9,5.1-20.8
			c3.7-0.7,9.1-2.3,14.9-5.5c2-1.1,6-3.4,9.8-7.2c5.5-5.6,7.9-11.8,9.8-18.3c6.3-21.4,3.6-36.8,6.4-54c0.2-1.3,0.9-5.7,1.4-11.6
			c0.4-4.7,0.5-8.5,0.5-10.6c-2.5-2-18.7-14.5-40.3-10.6c-20,3.6-30.6,18.8-33.4,22.8C1108.5-196.7,1106.2-189.6,1105-184.9z"/>
		<path id="XMLID_1834_" class="st2" d="M1103.2-159.6c0.1,3.3,0,6.9-0.4,10.9c-0.5,5.2-1.5,9.9-2.5,13.8c-1.4,1.7-4.2,4.5-8.5,6.2
			c-9,3.4-17.2-1-18.5-1.8c-0.4-4.2-1.1-10.4-2.6-17.8c-3.3-16.5-7.6-25.6-9.1-31.3c-2.9-10.8-0.9-27.8,21.8-54.8
			c-6.5-0.2-8-1.2-8.3-2.2c-0.8-3.1,11.5-9.2,21.3-12.6c13.1-4.6,23.6-5,23.5-6.5c-0.1-1.6-11.7-1.6-11.8-3
			c-0.1-1.6,13.1-5.4,27.4-4.4c3.4,0.3,20.3,1.8,36.6,14.4c5.3,4.1,14.6,11.5,18.7,23.9c1.3,3.9,4.4,13.3-0.4,19.2
			c-1.3,1.6-2.8,2.5-3.9,3c0.2-2,0.2-5.6-1.7-9.1c-2.6-4.5-7-6.3-11.3-7.8c-2.1-0.8-8.7-3-18.7-2.6c-5.7,0.2-15.9,0.6-25.7,7
			c-0.6,0.4,0.1-0.1-11.3,10.4c-7.8,7.2-11.3,10.3-11.3,14.8c0,2.4,1.1,4.2,0,5.2c-1.5,1.5-4.6-1.2-8.7-0.9
			c-5.1,0.4-11.3,5.3-11.8,11.8c-0.5,7.2,6.7,11.7,7.4,12.2C1097.4-159.2,1101.6-159.4,1103.2-159.6z"/>
		<path id="XMLID_1838_" class="st8" d="M1136.4-219.3c-2.4,4-5.5,9.9-8.4,17.2c-4,10-10.4,25.8-9.6,45.9c0.9,20.6,9,36.4,14.5,45.2
			c-2.3,7.9-4.6,15.8-6.9,23.7c-5.9-1.2-8.2-3.4-9.2-5.4c-1.6-3.1-0.1-6.1,0.4-12.6c0.4-5,0-9.1-0.4-11.9c-4.2-3.6-8.7-8.3-13-14.2
			c-1.4-2-2.7-3.9-3.8-5.7c-0.4,1.3-1.3,3.2-3.1,5c-3.1,3.2-7,3.8-9.6,4.2c-6.2,1-11.4-0.7-14.2-1.9c-0.4-4.6-1-9.6-1.9-14.9
			c-1.5-8.5-3.6-16.1-5.7-22.6c1.3,4.7,5.2,8.1,10,8.8c4.9,0.7,9.8-1.7,12.3-6.1c-3.8-5.9-2.6-13.5,2.3-17.6c4-3.4,10-3.8,14.9-1.1
			c0.1-3.1,0.5-5.7,1.1-8C1111.3-209.9,1132.1-217.8,1136.4-219.3z"/>
		<g id="XMLID_1777_">
			<g id="XMLID_1802_">
				<path id="XMLID_1807_" class="st5" d="M1184-203.5c0.2,14.7-0.1,29.5-1.9,44.1c-1.7,13.4-5.6,27.1-15.1,37.1
					c-9.6,10.1-23.8,13.6-37.2,9.7c-12.5-3.6-22.1-13.3-27.7-24.8c-0.8-1.7-3.4-0.2-2.6,1.5c11.6,23.8,42.4,37.7,65.2,19.7
					c11-8.7,16.6-22.1,19.2-35.6c3.2-16.9,3.4-34.5,3.1-51.6C1187-205.5,1184-205.5,1184-203.5L1184-203.5z"/>
			</g>
		</g>
		<g id="XMLID_1778_">
			<g id="XMLID_1810_">
				<path id="XMLID_1815_" class="st5" d="M1160.2-198.8c0.9,7.4,2.1,14.7,3.6,22c0.8,3.5,2.8,8.3,2.3,11.9
					c-0.5,4.4-5.6,7.1-9.6,8.5c-1.8,0.7-1,3.6,0.8,2.9c5-1.8,12.7-6,12.1-12.3c-0.5-4.9-2.4-9.9-3.3-14.7
					c-1.2-6.1-2.2-12.2-2.9-18.4C1163-200.7,1160-200.7,1160.2-198.8L1160.2-198.8z"/>
			</g>
		</g>
		<g id="XMLID_1785_">
			<g id="XMLID_1819_">
				<path id="XMLID_1823_" class="st5" d="M1146.7-191c-0.3,3.3-1.1,6.5-2.3,9.6c-0.7,1.8,2.2,2.6,2.9,0.8c1.3-3.4,2-6.8,2.4-10.4
					C1149.9-192.9,1146.9-192.9,1146.7-191L1146.7-191z"/>
			</g>
		</g>
		<g id="XMLID_1786_">
			<g id="XMLID_1827_">
				<path id="XMLID_1831_" class="st5" d="M1146-191.9c-1.4,3.7-2,7.6-2,11.5c0,1.9,3,1.9,3,0c0-3.7,0.6-7.2,1.9-10.7
					C1149.6-193,1146.7-193.7,1146-191.9L1146-191.9z"/>
			</g>
		</g>
		<g id="XMLID_1795_">
			<g id="XMLID_1851_">
				<path id="XMLID_1856_" class="st5" d="M1137.2-200.2c4.3-4,10.9-4.1,15.2-0.1c1.4,1.3,3.5-0.8,2.1-2.1c-5.5-5.1-14-5.1-19.5,0.1
					C1133.7-201,1135.8-198.9,1137.2-200.2L1137.2-200.2z"/>
			</g>
		</g>
		<g id="XMLID_1798_">
			<g id="XMLID_1859_">
				<path id="XMLID_1864_" class="st5" d="M1169.6-200.6c3.4-2.6,8.5-1.1,10.4,2.6c0.9,1.7,3.5,0.2,2.6-1.5
					c-2.8-5.6-10.3-6.9-15.1-3.2C1165.9-201.6,1168.1-199.5,1169.6-200.6L1169.6-200.6z"/>
			</g>
		</g>
		<g id="XMLID_1800_">
			<g id="XMLID_1873_">
				<path id="XMLID_1877_" class="st5" d="M1162.9-143.5c-7.1,4.2-15.9,1.5-19.1-6.3c-0.7-1.8-3.6-1-2.9,0.8
					c3.9,9.5,14.5,13.3,23.5,8C1166.1-141.9,1164.5-144.5,1162.9-143.5L1162.9-143.5z"/>
			</g>
		</g>
		<g id="XMLID_1808_">
			<g id="XMLID_1881_">
				<path id="XMLID_1885_" class="st5" d="M1106.4-184c-7-9.1-20.4,0.2-22.2,9c-2.3,11.2,9.1,20.3,19.4,14.9
					c1.7-0.9,0.2-3.5-1.5-2.6c-8.6,4.5-17.2-4-14.6-12.9c1.8-6.3,11.6-13,16.8-6.3C1105.5-180.4,1107.6-182.5,1106.4-184L1106.4-184
					z"/>
			</g>
		</g>
		<g id="XMLID_1794_">
			<g id="XMLID_1857_">
				<path id="XMLID_1880_" class="st5" d="M1176.1-188.5c-0.3,3.3-1.1,6.5-2.3,9.6c-0.7,1.8,2.2,2.6,2.9,0.8c1.3-3.4,2-6.8,2.4-10.4
					C1179.3-190.4,1176.3-190.4,1176.1-188.5L1176.1-188.5z"/>
			</g>
		</g>
		<g id="XMLID_1793_">
			<g id="XMLID_1843_">
				<path id="XMLID_1848_" class="st5" d="M1175.4-189.5c-1.4,3.7-2,7.6-2,11.5c0,1.9,3,1.9,3,0c0-3.7,0.6-7.2,1.9-10.7
					C1178.9-190.5,1176-191.3,1175.4-189.5L1175.4-189.5z"/>
			</g>
		</g>
		<g id="XMLID_1816_">
			<g id="XMLID_1889_">
				<path id="XMLID_1894_" class="st5" d="M1145.8-110.7c-2.5,5.3-4.3,10.9-5.3,16.7c-0.3,1.9,2.6,2.7,2.9,0.8
					c0.9-5.6,2.6-10.9,5-16C1149.2-110.9,1146.6-112.4,1145.8-110.7L1145.8-110.7z"/>
			</g>
		</g>
		<g id="XMLID_1817_">
			<g id="XMLID_1897_">
				<path id="XMLID_1902_" class="st5" d="M1117-115.1c0,4.1-0.3,8.2-1.2,12.2c-0.5,2.3-1.9,4.9-1.4,7.3c0.8,3.9,5.5,7.1,8.9,8.5
					c6.3,2.7,19.2,2.4,20.1-6.5c0.2-1.9-2.8-1.9-3,0c-0.4,4-6.7,5.1-9.8,5c-3.8-0.1-7.7-1.5-10.5-4.1c-3.9-3.6-1.6-7.8-0.8-12.2
					c0.6-3.4,0.8-6.8,0.8-10.3C1119.9-117.1,1116.9-117.1,1117-115.1L1117-115.1z"/>
			</g>
		</g>
		<g id="XMLID_1824_">
			<g id="XMLID_1905_">
				<path id="XMLID_1910_" class="st5" d="M1124.7-111.5c5.9,3.6,12.3,6.2,18.9,8c1.9,0.5,2.7-2.4,0.8-2.9
					c-6.5-1.7-12.5-4.3-18.2-7.7C1124.6-115.1,1123.1-112.5,1124.7-111.5L1124.7-111.5z"/>
			</g>
		</g>
		<g id="XMLID_1826_">
			<g id="XMLID_1913_">
				<path id="XMLID_1918_" class="st5" d="M1137.6-107.2c2.3,0.8,4.6,1.3,7,1.6c1.9,0.3,2.7-2.6,0.8-2.9c-2.4-0.3-4.7-0.9-7-1.6
					C1136.5-110.7,1135.7-107.8,1137.6-107.2L1137.6-107.2z"/>
			</g>
		</g>
	</g>
	<g id="girl_hand">
		<path id="XMLID_2216_" class="st3" d="M1288.6,99.2c-2.2,1-2.2,4.4-2.3,8.7c-0.1,3.9-0.2,7.8,2.3,9.3c1.7,1,3.9,0.4,5,0
			c0.1,0.5,0.4,3.2,2.9,5c3.2,2.2,6.8,0.7,7,0.6c0.6,1.1,2.1,3.2,4.7,4.7c0.7,0.4,5,2.9,9.6,1.2c3-1.1,6.3-4,5.8-6.1
			c-0.6-2.4-5.5-1.1-8.4-4.7c-2.9-3.5-0.7-7.8-3.5-9.9c-1.8-1.3-4.3-0.9-6.4-0.3c0-3.4-2.2-6.1-4.7-6.4c-2.1-0.3-3.7,1.1-4.1,1.5
			C1293.9,99.8,1290.7,98.3,1288.6,99.2z"/>
		<g id="XMLID_2142_">
			<g id="XMLID_2210_">
				<path id="XMLID_2214_" class="st5" d="M1290.5,115.4c-3.7,1.2-3.4-12.4-2-14c1.7-0.1,3.3-0.2,5-0.3c0.5,0.9,0.7,1.8,0.7,2.8
					c0.1,1.1,0.1,2.3,0,3.4c-0.1,1.5-0.1,3-0.2,4.5c0,0.5-0.1,1-0.1,1.5c0.1,1.3-0.5,2.3-2,2.9c-0.5-1.9-3.4-1.1-2.9,0.8
					c0.5,1.8,2.1,2.9,4,2.6c2.2-0.3,3.3-2.2,3.7-4.3c0.8-3.6,0.8-8.1,0.5-11.8c-0.2-2.7-1.4-5.5-3.9-6.8c-6.2-3.1-7.9,4.1-8.4,8.6
					c-0.5,3.8-0.2,15,6.4,12.8C1293.1,117.7,1292.3,114.8,1290.5,115.4L1290.5,115.4z"/>
			</g>
		</g>
		<g id="XMLID_2150_">
			<g id="XMLID_2218_">
				<path id="XMLID_2223_" class="st5" d="M1298.1,121.7c-1.2-3.9-1.9-7.9-1.9-12c0-1.3-0.3-3.6,0.5-4.8c3.4-2.3,5.5-1.7,6.1,1.7
					c0.3,1.2,0.4,2.4,0.5,3.6c0.2,1.9,3.2,1.9,3,0c-0.3-3.3-0.8-6.9-3.6-9.1c-2-1.5-4.9-1.9-6.9-0.2c-5.4,4.4-2.3,16.2-0.7,21.6
					C1295.8,124.4,1298.7,123.6,1298.1,121.7L1298.1,121.7z"/>
			</g>
		</g>
		<g id="XMLID_2158_">
			<g id="XMLID_2226_">
				<path id="XMLID_2231_" class="st5" d="M1294.7,122.7c2.8,2.4,6,3.2,9.6,2.2c0.8-0.2,1.3-1.1,1-1.8c-0.6-2.1-0.9-4.3-0.8-6.5
					c0.1-1.5,0.5-5.9,1.8-7c3.4-2.8,7,7.2,8,9.1c0.9,1.7,3.5,0.2,2.6-1.5c-1.7-3.3-5.4-14-11.2-11.1c-5.4,2.7-4.6,13.1-3.4,17.8
					c0.3-0.6,0.7-1.2,1-1.8c-2.5,0.7-4.7,0.3-6.7-1.4C1295.3,119.3,1293.2,121.4,1294.7,122.7L1294.7,122.7z"/>
			</g>
		</g>
		<g id="XMLID_2167_">
			<g id="XMLID_2234_">
				<path id="XMLID_2239_" class="st5" d="M1313.8,128.5c-1.5-0.5-3.2-0.9-4.4-2c-2.5-2.2-0.6-5.2,2.2-6.1c3.7-1.2,7.8,0,10.6,2.6
					c1.4,1.3,3.5-0.8,2.1-2.1c-4.5-4.2-12.8-5.9-17.5-1c-5.2,5.4,1.3,10.1,6.2,11.6C1314.8,131.9,1315.6,129,1313.8,128.5
					L1313.8,128.5z"/>
			</g>
		</g>
		<g id="XMLID_2175_">
			<g id="XMLID_2242_">
				<path id="XMLID_2247_" class="st5" d="M1310.6,129.3c4.4,4,10.6,1.5,13.8-2.8c4.4-6-4.7-9.8-9.1-11.6c-1.8-0.7-3.3,1.8-1.5,2.6
					c2,0.9,9.8,3.7,8.5,6.9c-1.3,3.3-6.8,5.3-9.5,2.9C1311.3,125.8,1309.2,127.9,1310.6,129.3L1310.6,129.3z"/>
			</g>
		</g>
	</g>
</g>
</svg>
